<?xml version="1.0" encoding="utf-8"?>
<!-- Generator: Adobe Illustrator 16.2.0, SVG Export Plug-In . SVG Version: 6.00 Build 0)  -->
<!DOCTYPE svg PUBLIC "-//W3C//DTD SVG 1.1//EN" "http://www.w3.org/Graphics/SVG/1.1/DTD/svg11.dtd">
<svg version="1.1" id="Laag_1" xmlns="http://www.w3.org/2000/svg" xmlns:xlink="http://www.w3.org/1999/xlink" x="0px" y="0px"
	 width="382.677px" height="170.079px" viewBox="0 0 382.677 170.079" enable-background="new 0 0 382.677 170.079"
	 xml:space="preserve">
<polygon fill="#D11242" points="203.373,31.001 20.173,31.001 56.769,112.756 203.373,80.901 "/>
<g>
	<path fill="#FFFFFF" d="M75.674,47.544c-5.842,0-8.762,4.688-8.762,14.063c0,4.763,0.689,8.437,2.065,11.022
		c1.377,2.586,3.348,3.879,5.915,3.879c1.414,0,2.754-0.519,4.019-1.554c1.451-1.183,2.622-2.922,3.516-5.215
		c0.632-1.849,1.413-2.774,2.343-2.774c0.744,0,1.32,0.306,1.731,0.917c0.409,0.613,0.614,1.64,0.614,3.086v0.889
		c-0.075,0.482-0.112,0.834-0.112,1.056c-0.149,1.557-0.373,2.641-0.67,3.252c-0.297,0.612-0.893,1.251-1.785,1.919
		c-2.121,1.149-3.238,1.742-3.349,1.778c-2.382,1.038-4.707,1.557-6.976,1.557c-4.428,0-7.963-1.758-10.603-5.274
		c-2.643-3.516-3.962-8.25-3.962-14.203c0-5.728,1.366-10.37,4.101-13.924c2.735-3.553,6.316-5.329,10.743-5.329
		c0.744,0,1.423,0.056,2.037,0.167c0.613,0.111,1.832,0.428,3.656,0.949c0.631,0.223,1.152,0.334,1.562,0.334
		c0.112,0,0.594-0.092,1.451-0.279c0.856-0.185,1.395-0.279,1.619-0.279c1.227,0,1.841,1.08,1.841,3.237l0.223,7.016
		c0,1.797-0.688,2.695-2.064,2.695c-1.34,0-2.104-0.673-2.29-2.021c-0.372-2.658-1.031-4.484-1.98-5.476
		C79.608,48.04,77.98,47.544,75.674,47.544"/>
	<path fill="#FFFFFF" d="M117.542,48.159l-2.293-0.001c-2.462,0-3.692-0.809-3.692-2.426c0-0.625,0.224-1.139,0.67-1.544
		c0.446-0.404,0.985-0.607,1.618-0.607h9.822c1.749,0,2.623,0.875,2.623,2.624c0,0.745-0.242,1.255-0.725,1.534
		c-0.485,0.279-1.415,0.419-2.791,0.419l-3.909,30.861c-0.222,1.86-1.3,2.791-3.234,2.791c-0.782,0-1.379-0.15-1.786-0.447
		c-0.558-0.41-1.06-1.302-1.508-2.679l-4.575-13.115l-4.409,13.227c-0.659,2.008-1.849,3.014-3.569,3.014
		c-1.905,0-3.002-1.042-3.296-3.126L91.8,48.158c-1.226,0-2.11-0.196-2.649-0.586c-0.54-0.391-0.81-0.977-0.81-1.758
		c0-0.67,0.261-1.209,0.781-1.618c0.522-0.41,1.21-0.615,2.066-0.615h9.877c1.525,0,2.288,0.699,2.288,2.096
		c0,1.654-0.982,2.481-2.945,2.481l-2-0.003l2.968,22.273l3.682-11.043c0.594-1.755,1.503-2.633,2.729-2.633
		c1.336,0,2.3,0.873,2.894,2.617l4.355,12.141L117.542,48.159z"/>
	<path fill="#FFFFFF" d="M147.775,48.158h-4.129V75.95h6.418c0.707,0,1.292,0.214,1.758,0.642c0.464,0.428,0.698,0.995,0.698,1.702
		c0,0.67-0.243,1.21-0.725,1.619c-0.485,0.409-1.1,0.613-1.842,0.613h-18.64c-0.782,0-1.415-0.204-1.898-0.613
		c-0.485-0.409-0.725-0.985-0.725-1.731c0-0.669,0.223-1.208,0.669-1.618c0.446-0.409,1.06-0.614,1.842-0.614h5.749V48.158h-5.971
		c-0.671,0-1.221-0.214-1.648-0.641c-0.428-0.428-0.641-0.977-0.641-1.647c0-0.706,0.223-1.264,0.669-1.674
		c0.446-0.409,1.06-0.614,1.842-0.614h17.746c1.712,0,2.567,0.744,2.567,2.232c0,0.93-0.27,1.554-0.809,1.87
		C150.166,48,149.189,48.158,147.775,48.158"/>
</g>
</svg>
