<?xml version="1.0" encoding="utf-8"?>
<!-- Generator: Adobe Illustrator 16.2.0, SVG Export Plug-In . SVG Version: 6.00 Build 0)  -->
<!DOCTYPE svg PUBLIC "-//W3C//DTD SVG 1.1//EN" "http://www.w3.org/Graphics/SVG/1.1/DTD/svg11.dtd">
<svg version="1.1" id="Laag_1" xmlns="http://www.w3.org/2000/svg" xmlns:xlink="http://www.w3.org/1999/xlink" x="0px" y="0px"
	 width="382.677px" height="170.079px" viewBox="0 0 382.677 170.079" enable-background="new 0 0 382.677 170.079"
	 xml:space="preserve">
<polygon fill="#D11242" points="203.373,31.001 20.173,31.001 56.769,112.756 203.373,80.901 "/>
<g>
	<path fill="#FFFFFF" d="M75.674,47.544c-5.842,0-8.762,4.688-8.762,14.063c0,4.763,0.689,8.437,2.065,11.022
		c1.377,2.586,3.348,3.879,5.915,3.879c1.414,0,2.754-0.519,4.019-1.554c1.451-1.183,2.622-2.922,3.516-5.215
		c0.632-1.849,1.413-2.774,2.343-2.774c0.744,0,1.32,0.306,1.731,0.917c0.409,0.613,0.614,1.64,0.614,3.086v0.889
		c-0.075,0.482-0.112,0.834-0.112,1.056c-0.149,1.557-0.373,2.641-0.67,3.252c-0.297,0.612-0.893,1.251-1.785,1.919
		c-2.121,1.149-3.238,1.742-3.349,1.778c-2.382,1.038-4.707,1.557-6.976,1.557c-4.428,0-7.963-1.758-10.603-5.274
		c-2.643-3.516-3.962-8.25-3.962-14.203c0-5.728,1.366-10.37,4.101-13.924c2.735-3.553,6.316-5.329,10.743-5.329
		c0.744,0,1.423,0.056,2.037,0.167c0.613,0.111,1.832,0.428,3.656,0.949c0.631,0.223,1.152,0.334,1.562,0.334
		c0.112,0,0.594-0.092,1.451-0.279c0.856-0.185,1.395-0.279,1.619-0.279c1.227,0,1.841,1.08,1.841,3.237l0.223,7.016
		c0,1.797-0.688,2.695-2.064,2.695c-1.34,0-2.104-0.673-2.29-2.021c-0.372-2.658-1.031-4.484-1.98-5.476
		C79.608,48.04,77.98,47.544,75.674,47.544"/>
	<path fill="#FFFFFF" d="M117.542,48.159l-2.293-0.001c-2.462,0-3.692-0.809-3.692-2.426c0-0.625,0.224-1.139,0.67-1.544
		c0.446-0.404,0.985-0.607,1.618-0.607h9.822c1.749,0,2.623,0.875,2.623,2.624c0,0.745-0.242,1.255-0.725,1.534
		c-0.485,0.279-1.415,0.419-2.791,0.419l-3.909,30.861c-0.222,1.86-1.3,2.791-3.234,2.791c-0.782,0-1.379-0.15-1.786-0.447
		c-0.558-0.41-1.06-1.302-1.508-2.679l-4.575-13.115l-4.409,13.227c-0.659,2.008-1.849,3.014-3.569,3.014
		c-1.905,0-3.002-1.042-3.296-3.126L91.8,48.158c-1.226,0-2.11-0.196-2.649-0.586c-0.54-0.391-0.81-0.977-0.81-1.758
		c0-0.67,0.261-1.209,0.781-1.618c0.522-0.41,1.21-0.615,2.066-0.615h9.877c1.525,0,2.288,0.699,2.288,2.096
		c0,1.654-0.982,2.481-2.945,2.481l-2-0.003l2.968,22.273l3.682-11.043c0.594-1.755,1.503-2.633,2.729-2.633
		c1.336,0,2.3,0.873,2.894,2.617l4.355,12.141L117.542,48.159z"/>
	<path fill="#FFFFFF" d="M147.775,48.158h-4.129V75.95h6.418c0.707,0,1.292,0.214,1.758,0.642c0.464,0.428,0.698,0.995,0.698,1.702
		c0,0.67-0.243,1.21-0.725,1.619c-0.485,0.409-1.1,0.613-1.842,0.613h-18.64c-0.782,0-1.415-0.204-1.898-0.613
		c-0.485-0.409-0.725-0.985-0.725-1.731c0-0.669,0.223-1.208,0.669-1.618c0.446-0.409,1.06-0.614,1.842-0.614h5.749V48.158h-5.971
		c-0.671,0-1.221-0.214-1.648-0.641c-0.428-0.428-0.641-0.977-0.641-1.647c0-0.706,0.223-1.264,0.669-1.674
		c0.446-0.409,1.06-0.614,1.842-0.614h17.746c1.712,0,2.567,0.744,2.567,2.232c0,0.93-0.27,1.554-0.809,1.87
		C150.166,48,149.189,48.158,147.775,48.158"/>
	<g>
		<path d="M157.845,103.972c-0.583-0.344-1.23-0.516-1.905-0.516c-2.13,0-3.545,1.535-3.545,3.611c0,2.17,1.561,3.612,3.479,3.612
			c0.661,0,1.548-0.172,2.011-0.45l0.079,1.283c-0.701,0.291-1.561,0.331-2.104,0.331c-2.923,0-4.868-1.878-4.868-4.815
			c0-2.844,2.064-4.736,4.882-4.736c0.714,0,1.416,0.105,2.077,0.396L157.845,103.972z"/>
		<path d="M164.602,111.407c-0.476,0.172-1.019,0.437-2.13,0.437c-2.395,0-3.493-1.455-3.493-3.651c0-1.998,1.257-3.413,3.162-3.413
			c2.249,0,2.977,1.641,2.977,3.81h-4.815c0,1.337,1.045,2.25,2.222,2.25c0.82,0,1.773-0.424,2.077-0.676V111.407z M163.794,107.663
			c0-1.031-0.608-1.879-1.68-1.879c-1.217,0-1.72,1.006-1.813,1.879H163.794z"/>
		<path d="M166.781,104.938h1.204v1.071h0.026c0.371-0.768,1.27-1.23,2.209-1.23c1.746,0,2.527,1.085,2.527,2.897v4.008h-1.244
			v-3.492c0-1.574-0.344-2.342-1.429-2.408c-1.416,0-2.051,1.139-2.051,2.779v3.121h-1.243V104.938z"/>
		<path d="M178.445,105.943h-1.786v3.69c0,0.781,0.477,1.205,1.045,1.205c0.383,0,0.661-0.119,0.847-0.238v1.059
			c-0.278,0.078-0.662,0.185-1.059,0.185c-1.283,0-2.077-0.608-2.077-1.958v-3.942h-1.521v-1.005h1.521v-1.562l1.244-0.397v1.959
			h1.786V105.943z"/>
		<path d="M180.004,104.938h1.165v1.045h0.026c0.331-0.701,1.045-1.204,1.759-1.204c0.371,0,0.556,0.04,0.82,0.093v1.111
			c-0.225-0.093-0.476-0.119-0.688-0.119c-1.111,0-1.839,1.059-1.839,2.752v3.068h-1.244V104.938z"/>
		<path d="M191.115,111.685h-1.204v-1.071h-0.026c-0.371,0.768-1.27,1.23-2.209,1.23c-1.746,0-2.526-1.085-2.526-2.897v-4.008h1.243
			v3.492c0,1.574,0.344,2.342,1.429,2.408c1.416,0,2.051-1.139,2.051-2.779v-3.121h1.244V111.685z"/>
		<path d="M193.214,104.938h1.164v0.979h0.026c0.477-0.78,1.151-1.138,2.144-1.138c0.78,0,1.562,0.397,1.918,1.31
			c0.463-0.965,1.482-1.31,2.091-1.31c1.72,0,2.342,1.111,2.342,2.579v4.326h-1.244v-4.021c0-0.833-0.198-1.879-1.204-1.879
			c-1.27,0-1.772,1.244-1.772,2.501v3.399h-1.243v-4.021c0-0.833-0.199-1.879-1.204-1.879c-1.271,0-1.772,1.244-1.772,2.501v3.399
			h-1.244V104.938z"/>
		<path d="M207.627,102.451h1.455l2.21,7.911h0.026l1.971-7.911h1.879l1.997,7.911h0.026l2.21-7.911h1.402l-2.845,9.233h-1.706
			l-2.011-8.069h-0.027l-2.023,8.069h-1.773L207.627,102.451z"/>
		<path d="M223.364,103.431h-1.402v-1.402h1.402V103.431z M222.041,104.938h1.244v6.746h-1.244V104.938z"/>
		<path d="M225.056,110.362c0.489,0.317,1.19,0.477,1.548,0.477c0.568,0,1.27-0.238,1.27-0.967c0-1.23-2.923-1.124-2.923-3.016
			c0-1.402,1.045-2.077,2.381-2.077c0.582,0,1.059,0.119,1.548,0.265l-0.105,1.085c-0.278-0.173-1.019-0.345-1.311-0.345
			c-0.635,0-1.19,0.266-1.19,0.82c0,1.377,2.924,0.979,2.924,3.136c0,1.442-1.15,2.104-2.354,2.104c-0.635,0-1.283-0.065-1.853-0.37
			L225.056,110.362z"/>
		<path d="M230.702,101.763h1.243v5.914l2.712-2.738h1.693l-3.135,2.989l3.532,3.757h-1.786l-3.017-3.466v3.466h-1.243V101.763z"/>
		<path d="M244.021,111.685h-1.203v-1.071h-0.026c-0.371,0.768-1.271,1.23-2.21,1.23c-1.746,0-2.526-1.085-2.526-2.897v-4.008h1.243
			v3.492c0,1.574,0.344,2.342,1.429,2.408c1.416,0,2.051-1.139,2.051-2.779v-3.121h1.243V111.685z"/>
		<path d="M246.134,104.938h1.204v1.071h0.026c0.37-0.768,1.27-1.23,2.209-1.23c1.746,0,2.526,1.085,2.526,2.897v4.008h-1.243
			v-3.492c0-1.574-0.344-2.342-1.429-2.408c-1.416,0-2.051,1.139-2.051,2.779v3.121h-1.243V104.938z"/>
		<path d="M258.989,110.732h-0.026c-0.331,0.503-1.098,1.111-2.302,1.111c-2.037,0-2.897-1.813-2.897-3.651
			c0-1.813,0.953-3.413,2.91-3.413c1.178,0,1.853,0.463,2.236,1.085h0.026v-4.102h1.243v9.922h-1.19V110.732z M256.952,110.839
			c1.402,0,1.984-1.39,1.984-2.514c0-1.258-0.648-2.541-1.998-2.541c-1.349,0-1.878,1.271-1.852,2.501
			C255.061,109.343,255.616,110.839,256.952,110.839z"/>
		<path d="M267.466,111.407c-0.477,0.172-1.02,0.437-2.13,0.437c-2.395,0-3.493-1.455-3.493-3.651c0-1.998,1.257-3.413,3.162-3.413
			c2.249,0,2.977,1.641,2.977,3.81h-4.815c0,1.337,1.045,2.25,2.223,2.25c0.82,0,1.772-0.424,2.077-0.676V111.407z M266.658,107.663
			c0-1.031-0.608-1.879-1.68-1.879c-1.218,0-1.72,1.006-1.813,1.879H266.658z"/>
		<path d="M280.835,106.698c-0.119,1.494-0.528,2.354-1.058,3.161l1.613,1.825h-1.653l-0.754-0.898
			c-0.662,0.754-1.469,1.058-2.646,1.058c-1.825,0-2.977-1.032-2.977-2.579c0-1.402,0.82-2.197,2.064-2.699
			c-0.49-0.596-0.953-1.217-0.953-2.104c0-1.482,1.085-2.17,2.408-2.17c1.204,0,2.288,0.635,2.288,2.09
			c0,1.178-1.045,1.972-2.023,2.408l1.878,2.143c0.357-0.568,0.503-1.177,0.569-2.234H280.835z M276.575,110.839
			c0.86,0,1.416-0.557,1.707-0.887l-2.223-2.606c-0.701,0.477-1.297,0.913-1.297,1.825
			C274.763,110.19,275.623,110.839,276.575,110.839z M276.536,106.05c0.556-0.266,1.389-0.834,1.389-1.614
			c0-0.847-0.463-1.138-1.098-1.138c-0.608,0-1.111,0.396-1.111,1.19C275.716,105.11,276.139,105.612,276.536,106.05z"/>
		<path d="M286.663,102.451h1.322v9.233h-1.322V102.451z"/>
		<path d="M290.221,104.938h1.204v1.071h0.026c0.37-0.768,1.27-1.23,2.209-1.23c1.746,0,2.526,1.085,2.526,2.897v4.008h-1.243
			v-3.492c0-1.574-0.344-2.342-1.429-2.408c-1.416,0-2.051,1.139-2.051,2.779v3.121h-1.243V104.938z"/>
		<path d="M299.106,105.943h-1.588v-1.005h1.588v-0.622c0-1.641,0.424-2.712,2.263-2.712c0.317,0,0.582,0.039,0.833,0.079
			l-0.053,1.005c-0.146-0.053-0.384-0.078-0.596-0.078c-1.071,0-1.203,0.688-1.203,1.6v0.729h1.785v1.005h-1.785v5.741h-1.244
			V105.943z"/>
		<path d="M306.433,104.779c2.051,0,3.427,1.481,3.427,3.532c0,1.932-1.402,3.532-3.427,3.532c-2.037,0-3.439-1.601-3.439-3.532
			C302.993,106.261,304.369,104.779,306.433,104.779z M306.433,110.839c1.456,0,2.104-1.323,2.104-2.527
			c0-1.283-0.78-2.527-2.104-2.527c-1.336,0-2.116,1.244-2.116,2.527C304.316,109.516,304.965,110.839,306.433,110.839z"/>
		<path d="M311.523,104.938h1.164v1.045h0.026c0.331-0.701,1.045-1.204,1.76-1.204c0.37,0,0.556,0.04,0.82,0.093v1.111
			c-0.226-0.093-0.477-0.119-0.688-0.119c-1.111,0-1.839,1.059-1.839,2.752v3.068h-1.243V104.938z"/>
		<path d="M316.653,104.938h1.164v0.979h0.026c0.477-0.78,1.151-1.138,2.144-1.138c0.78,0,1.562,0.397,1.918,1.31
			c0.463-0.965,1.482-1.31,2.091-1.31c1.72,0,2.342,1.111,2.342,2.579v4.326h-1.244v-4.021c0-0.833-0.198-1.879-1.204-1.879
			c-1.27,0-1.772,1.244-1.772,2.501v3.399h-1.243v-4.021c0-0.833-0.199-1.879-1.204-1.879c-1.271,0-1.772,1.244-1.772,2.501v3.399
			h-1.244V104.938z"/>
		<path d="M328.739,105.415c0.622-0.371,1.362-0.636,2.223-0.636c1.932,0,2.712,0.952,2.712,2.792v2.791
			c0,0.768,0.026,1.125,0.053,1.322h-1.164v-0.873h-0.026c-0.291,0.41-0.953,1.032-2.091,1.032c-1.455,0-2.474-0.635-2.474-2.104
			c0-1.693,1.853-2.223,3.136-2.223c0.489,0,0.833,0,1.322,0.026c0-1.164-0.423-1.76-1.666-1.76c-0.701,0-1.456,0.266-1.958,0.688
			L328.739,105.415z M332.43,108.47c-0.264,0-0.528-0.025-0.793-0.025c-0.675,0-2.342,0.105-2.342,1.296
			c0,0.714,0.688,1.099,1.257,1.099c1.23,0,1.878-0.768,1.878-1.773V108.47z"/>
		<path d="M339.359,105.943h-1.786v3.69c0,0.781,0.477,1.205,1.045,1.205c0.384,0,0.662-0.119,0.847-0.238v1.059
			c-0.277,0.078-0.661,0.185-1.058,0.185c-1.283,0-2.077-0.608-2.077-1.958v-3.942h-1.521v-1.005h1.521v-1.562l1.243-0.397v1.959
			h1.786V105.943z"/>
		<path d="M342.399,103.431h-1.402v-1.402h1.402V103.431z M341.076,104.938h1.244v6.746h-1.244V104.938z"/>
		<path d="M348.881,106.075c-0.477-0.197-0.952-0.291-1.35-0.291c-1.389,0-2.17,1.244-2.17,2.527c0,1.204,0.648,2.527,2.249,2.527
			c0.424,0,0.953-0.133,1.337-0.385l0.092,1.111c-0.516,0.238-1.11,0.278-1.561,0.278c-2.037,0-3.439-1.601-3.439-3.532
			c0-2.051,1.376-3.532,3.439-3.532c0.503,0,1.151,0.119,1.508,0.265L348.881,106.075z"/>
		<path d="M350.783,105.415c0.622-0.371,1.362-0.636,2.223-0.636c1.932,0,2.712,0.952,2.712,2.792v2.791
			c0,0.768,0.026,1.125,0.053,1.322h-1.164v-0.873h-0.026c-0.291,0.41-0.953,1.032-2.091,1.032c-1.455,0-2.474-0.635-2.474-2.104
			c0-1.693,1.853-2.223,3.136-2.223c0.489,0,0.833,0,1.322,0.026c0-1.164-0.423-1.76-1.666-1.76c-0.701,0-1.456,0.266-1.958,0.688
			L350.783,105.415z M354.474,108.47c-0.264,0-0.528-0.025-0.793-0.025c-0.675,0-2.342,0.105-2.342,1.296
			c0,0.714,0.688,1.099,1.257,1.099c1.23,0,1.878-0.768,1.878-1.773V108.47z"/>
	</g>
</g>
</svg>
