<?xml version="1.0" encoding="UTF-8"?>
<!DOCTYPE svg PUBLIC "-//W3C//DTD SVG 1.1//EN" "http://www.w3.org/Graphics/SVG/1.1/DTD/svg11.dtd">
<svg version="1.1" xmlns="http://www.w3.org/2000/svg" xmlns:xlink="http://www.w3.org/1999/xlink" x="0" y="0" width="583.639" height="240.44" viewBox="0, 0, 583.639, 240.44">
  <g id="Layer_1" transform="translate(-0, -171.599)">
    <path d="M425.538,330.267 C423.774,330.821 420.606,330.328 418.063,330.328 C393.651,330.328 374.884,349.623 371.001,370.342 C368.327,384.603 375.259,392.329 385.493,392.329 C393.233,392.329 401.808,389.391 408.956,381.79 L409.202,381.79 L406.349,392.209 L422.954,392.209 C424.597,384.829 427.372,376.052 430.308,368.475 L457.6,289.412 L437.813,294.548 z M414.792,361.997 C410.274,373.382 402.462,378.746 396.851,378.746 C391.384,378.746 388.653,374.718 390.003,367.546 C392.142,356.079 402.589,343.896 414.196,343.896 C417.173,343.896 419.786,344.753 421.065,345.966 z" fill="#0080FF"/>
    <path d="M17.324,392.742 L27.31,364.671 C31.627,352.296 39.909,343.649 46.278,343.649 C50.816,343.649 51.623,346.955 50.801,351.29 C50.41,353.447 49.548,355.876 48.679,358.424 L35.631,392.742 L53.679,392.742 L64.304,364.424 C69.154,351.783 76.899,343.649 83.125,343.649 C87.42,343.649 88.801,346.69 87.979,351.024 C87.521,353.447 86.621,356.137 85.652,358.544 L72.896,392.742 L90.951,392.742 L104.601,356.388 C105.71,353.201 107.174,348.226 107.638,345.68 C109.512,335.69 104.928,329.878 95.291,329.878 C87.012,329.878 78.424,333.431 71.308,340.914 C71.738,335.818 68.45,329.878 58.32,329.878 C50.142,329.878 41.736,333.209 34.519,340.668 L34.297,340.668 L37.401,330.059 L22.826,330.059 C20.982,335.734 18.68,342.557 15.78,350.488 L0,392.742 z" fill="#000A56"/>
    <path d="M158.053,329.878 C135.324,329.878 117.2,347.262 113.374,367.691 C110.584,382.548 119.133,392.681 135.077,392.681 C157.197,392.681 175.725,376.384 179.779,354.744 C182.345,341.14 174.886,329.878 158.053,329.878 M152.978,343.649 C160.481,343.649 162.036,349.441 161.014,354.867 C159.124,364.914 150.575,378.933 140.421,378.933 C133.701,378.933 130.881,374.329 132.159,367.445 C133.885,358.257 142.045,343.649 152.978,343.649" fill="#000A56"/>
    <path d="M194.611,392.742 L205.156,364.939 C210.355,351.085 219.189,343.524 225.545,343.524 C230.56,343.524 231.605,346.609 230.757,351.085 C230.328,353.383 229.611,355.832 228.789,358.012 L215.245,392.742 L233.947,392.742 L247.535,356.345 C248.602,353.262 249.973,348.663 250.492,345.824 C252.4,335.69 247.735,329.878 237.75,329.878 C229.202,329.878 220.422,333.328 212.797,340.787 L212.554,340.787 L215.766,330 L199.237,330 C197.262,335.673 195.084,342.495 191.924,350.449 L176.013,392.742 z" fill="#000A56"/>
    <path d="M302.98,375.502 C297.857,377.594 291.944,378.933 284.971,378.933 C279.445,378.933 275.356,377.496 273.364,374.739 C272.357,373.178 272.146,370.753 272.293,369.212 C298.009,369.768 313.747,364.052 316.64,348.577 C318.784,337.213 311.526,330 299.157,330 C276.199,330 259.613,349.545 256.101,368.307 C253.348,382.981 260.127,392.681 277.638,392.681 C284.895,392.681 294.3,391.448 301.867,387.889 z M300.302,348.455 C299.259,354.006 291.551,355.832 276.669,355.688 C279.018,350.265 285.423,343.524 294.241,343.524 C298.595,343.524 300.839,345.578 300.302,348.455" fill="#000A56"/>
    <path d="M343.212,318.038 L338.714,329.878 L330.739,329.878 L325.577,343.649 L333.476,343.649 L324.026,369.086 C322.071,374.086 321.019,377.617 320.421,380.739 C319.132,387.729 323.386,392.681 334.405,392.681 C338.226,392.681 342.944,392.229 345.536,391.448 L349.993,378.663 C348.394,378.933 346.462,378.933 344.925,378.933 C340.816,378.933 339.95,376.69 340.519,373.547 C340.958,371.327 342.108,367.919 343.091,365.411 L351.417,343.649 L364.792,343.649 L370.22,329.878 L356.694,329.878 L363.108,312.902 z" fill="#000A56"/>
    <path d="M439.146,364.447 C437.726,368.04 436.392,371.74 435.693,375.461 C433.66,386.376 439.765,392.68 454.557,392.68 C483.536,392.68 500.717,369.89 504.393,350.326 C506.372,339.76 502.524,329.878 489.842,329.878 C481.856,329.878 473.899,333.062 468.141,338.113 L467.875,338.113 L481.2,300.965 L460.995,305.502 z M459.104,360.6 C463.354,350.081 471.395,343.649 478.333,343.649 C484.237,343.649 486.067,348.085 484.958,354.045 C482.983,364.568 472.401,378.932 461.161,378.932 C456.62,378.932 454.374,376.57 455.051,372.235 C455.379,369.767 456.206,367.524 456.967,365.55 z" fill="#0080FF"/>
    <path d="M512.268,412.04 C553.362,394.592 583.639,352.568 583.639,315.223 C583.639,259.488 522.047,214.339 446.094,214.339 C382.654,214.339 313.917,243.504 291.883,286.74 C315.656,253.548 361.525,234.235 415.408,234.235 C491.383,234.235 549.756,277.041 549.756,332.754 C549.756,359.165 534.112,393.382 512.268,412.04" fill="#000A56"/>
    <path d="M573.776,257.62 C538.53,205.769 469.233,198.745 444.243,199.523 C352.486,199.523 291.142,249.341 271.268,292.246 C270.734,293.4 233.024,301.371 208.299,308.361 C207.067,308.711 206.68,309.121 206.902,308.011 C248.008,225.047 317.386,171.612 420.156,171.612 C489.19,170.856 547.096,204.372 573.776,257.62" fill="#0080FF"/>
    <path d="M573.776,257.62 C538.53,205.769 469.233,198.745 444.243,199.523 C352.486,199.523 291.142,249.341 271.268,292.246 C270.734,293.4 233.024,301.371 208.299,308.361 C207.067,308.711 206.68,309.121 206.902,308.011 C248.008,225.047 317.386,171.612 420.156,171.612 C489.19,170.856 547.096,204.372 573.776,257.62" fill="#0080FF"/>
  </g>
</svg>
