<?xml version="1.0" encoding="UTF-8" standalone="no"?>
<!-- Created with Inkscape (http://www.inkscape.org/) -->

<svg
   xmlns:dc="http://purl.org/dc/elements/1.1/"
   xmlns:cc="http://creativecommons.org/ns#"
   xmlns:rdf="http://www.w3.org/1999/02/22-rdf-syntax-ns#"
   xmlns:svg="http://www.w3.org/2000/svg"
   xmlns="http://www.w3.org/2000/svg"
   xmlns:sodipodi="http://sodipodi.sourceforge.net/DTD/sodipodi-0.dtd"
   xmlns:inkscape="http://www.inkscape.org/namespaces/inkscape"
   width="841mm"
   height="1189mm"
   viewBox="0 0 841 1189"
   version="1.1"
   id="svg8"
   inkscape:version="0.92.1 r"
   sodipodi:docname="simd_imps_poster.svg">
  <defs
     id="defs2">
    <inkscape:perspective
       id="perspective32"
       inkscape:persp3d-origin="155.73302 : 87.977081 : 1"
       inkscape:vp_z="311.46603 : 131.96562 : 1"
       inkscape:vp_y="0 : 1000 : 0"
       inkscape:vp_x="0 : 131.96562 : 1"
       sodipodi:type="inkscape:persp3d" />
    <inkscape:perspective
       id="perspective32-2"
       inkscape:persp3d-origin="155.73302 : 87.977081 : 1"
       inkscape:vp_z="311.46603 : 131.96562 : 1"
       inkscape:vp_y="0 : 1000 : 0"
       inkscape:vp_x="0 : 131.96562 : 1"
       sodipodi:type="inkscape:persp3d" />
    <inkscape:perspective
       id="perspective32-4"
       inkscape:persp3d-origin="155.73302 : 87.977081 : 1"
       inkscape:vp_z="311.46603 : 131.96562 : 1"
       inkscape:vp_y="0 : 1000 : 0"
       inkscape:vp_x="0 : 131.96562 : 1"
       sodipodi:type="inkscape:persp3d" />
  </defs>
  <sodipodi:namedview
     id="base"
     pagecolor="#ffffff"
     bordercolor="#666666"
     borderopacity="1.0"
     inkscape:pageopacity="0.0"
     inkscape:pageshadow="2"
     inkscape:zoom="0.35355339"
     inkscape:cx="2382.93"
     inkscape:cy="2334.9069"
     inkscape:document-units="mm"
     inkscape:current-layer="g4855"
     showgrid="true"
     showguides="true"
     inkscape:guide-bbox="true"
     objecttolerance="20"
     inkscape:window-width="3840"
     inkscape:window-height="2041"
     inkscape:window-x="0"
     inkscape:window-y="41"
     inkscape:window-maximized="1"
     gridtolerance="10">
    <sodipodi:guide
       position="29.419653,1143.7175"
       orientation="1,0"
       id="guide5396"
       inkscape:locked="false" />
    <sodipodi:guide
       position="812.27081,1283.7583"
       orientation="1,0"
       id="guide5779"
       inkscape:locked="false" />
  </sodipodi:namedview>
  <metadata
     id="metadata5">
    <rdf:RDF>
      <cc:Work
         rdf:about="">
        <dc:format>image/svg+xml</dc:format>
        <dc:type
           rdf:resource="http://purl.org/dc/dcmitype/StillImage" />
        <dc:title />
      </cc:Work>
    </rdf:RDF>
  </metadata>
  <g
     inkscape:groupmode="layer"
     id="layer3"
     inkscape:label="background"
     style="display:inline"
     sodipodi:insensitive="true">
    <rect
       style="fill:#1f407a;fill-opacity:1;stroke-width:0.17631051"
       id="rect3971"
       width="841.10492"
       height="32.474094"
       x="-0.098724648"
       y="1158.1289" />
    <rect
       style="fill:#1f407a;fill-opacity:1;stroke-width:0.31454089"
       id="rect3977"
       width="841.7984"
       height="143.84131"
       x="-0.035475276"
       y="-0.075909592" />
  </g>
  <g
     inkscape:label="title and authors"
     inkscape:groupmode="layer"
     id="layer1"
     transform="translate(0,892)"
     style="display:inline"
     sodipodi:insensitive="true">
    <flowRoot
       xml:space="preserve"
       id="flowRoot3684"
       style="font-style:normal;font-weight:normal;font-size:40px;line-height:1.25;font-family:sans-serif;letter-spacing:0px;word-spacing:0px;fill:#000000;fill-opacity:1;stroke:none"
       transform="matrix(0.26458333,0,0,0.26458333,0,-892)"><flowRegion
         id="flowRegion3686"><rect
           id="rect3688"
           width="1480"
           height="840"
           x="0"
           y="13.858398" /></flowRegion><flowPara
         id="flowPara3690" /></flowRoot>    <text
       xml:space="preserve"
       style="font-style:normal;font-weight:normal;font-size:10.58333302px;line-height:1.25;font-family:sans-serif;letter-spacing:0px;word-spacing:0px;fill:#000000;fill-opacity:1;stroke:none;stroke-width:0.26458332"
       x="27.984436"
       y="-852.96594"
       id="text3702"><tspan
         sodipodi:role="line"
         id="tspan3700"
         x="27.984436"
         y="-852.96594"
         style="font-style:normal;font-variant:normal;font-weight:bold;font-stretch:normal;font-size:25.39999962px;font-family:sans-serif;-inkscape-font-specification:'sans-serif Bold';fill:#ffffff;fill-opacity:1;stroke-width:0.26458332">Scaling Column Imprints using Advanced Vectorization</tspan></text>
    <text
       xml:space="preserve"
       style="font-style:normal;font-weight:normal;font-size:19.75555611px;line-height:1.25;font-family:sans-serif;text-align:center;letter-spacing:0px;word-spacing:0px;text-anchor:middle;fill:#ffffff;fill-opacity:1;stroke:none;stroke-width:0.26458332"
       x="312.73218"
       y="-817.51953"
       id="text3716"><tspan
         sodipodi:role="line"
         id="tspan3714"
         x="312.73218"
         y="-817.51953"
         style="font-size:16.93333244px;text-align:center;text-anchor:middle;fill:#ffffff;fill-opacity:1;stroke-width:0.26458332">Lefteris Sidirourgos</tspan><tspan
         sodipodi:role="line"
         x="312.73218"
         y="-792.82507"
         style="font-size:16.93333244px;text-align:center;text-anchor:middle;fill:#ffffff;fill-opacity:1;stroke-width:0.26458332"
         id="tspan3808">Systems Group</tspan><tspan
         sodipodi:role="line"
         x="312.73218"
         y="-768.13062"
         style="font-size:16.93333244px;text-align:center;text-anchor:middle;fill:#ffffff;fill-opacity:1;stroke-width:0.26458332"
         id="tspan3810">ETH Zurich</tspan></text>
    <text
       xml:space="preserve"
       style="font-style:normal;font-weight:normal;font-size:19.75555611px;line-height:1.25;font-family:sans-serif;text-align:center;letter-spacing:0px;word-spacing:0px;text-anchor:middle;fill:#ffffff;fill-opacity:1;stroke:none;stroke-width:0.26458332"
       x="540.40607"
       y="-817.51953"
       id="text3720"><tspan
         sodipodi:role="line"
         id="tspan3718"
         x="540.40607"
         y="-817.51953"
         style="font-size:16.93333244px;text-align:center;text-anchor:middle;fill:#ffffff;fill-opacity:1;stroke-width:0.26458332">Hannes Mühleisen</tspan><tspan
         sodipodi:role="line"
         x="540.40607"
         y="-792.82507"
         style="font-size:16.93333244px;text-align:center;text-anchor:middle;fill:#ffffff;fill-opacity:1;stroke-width:0.26458332"
         id="tspan4053">Database Architectures</tspan><tspan
         sodipodi:role="line"
         x="540.40607"
         y="-768.13062"
         style="font-size:16.93333244px;text-align:center;text-anchor:middle;fill:#ffffff;fill-opacity:1;stroke-width:0.26458332"
         id="tspan3814">CWI Amsterdam</tspan></text>
    <flowRoot
       xml:space="preserve"
       id="flowRoot3987"
       style="font-style:normal;font-weight:normal;font-size:40px;line-height:1.25;font-family:sans-serif;letter-spacing:0px;word-spacing:0px;fill:#000000;fill-opacity:1;stroke:none"
       transform="matrix(0.26458333,0,0,0.26458333,0,-892)"><flowRegion
         id="flowRegion3989"><rect
           id="rect3991"
           width="907.09546"
           height="422.44733"
           x="909.68719"
           y="1238.6814" /></flowRegion><flowPara
         id="flowPara3993" /></flowRoot>    <flowRoot
       xml:space="preserve"
       id="flowRoot3999"
       style="font-style:normal;font-weight:normal;font-size:40px;line-height:1.25;font-family:sans-serif;letter-spacing:0px;word-spacing:0px;fill:#000000;fill-opacity:1;stroke:none"
       transform="matrix(0.26458333,0,0,0.26458333,0,-892)"><flowRegion
         id="flowRegion4001"><rect
           id="rect4003"
           width="1700.1561"
           height="1039.2722"
           x="329.14609"
           y="785.13373" /></flowRegion><flowPara
         id="flowPara4005" /></flowRoot>    <flowRoot
       xml:space="preserve"
       id="flowRoot4007"
       style="font-style:normal;font-weight:normal;font-size:40px;line-height:1.25;font-family:sans-serif;letter-spacing:0px;word-spacing:0px;fill:#000000;fill-opacity:1;stroke:none"
       transform="matrix(0.26458333,0,0,0.26458333,0,-892)"><flowRegion
         id="flowRegion4009"><rect
           id="rect4011"
           width="1531.6956"
           height="228.06972"
           x="782.69385"
           y="4195.8125" /></flowRegion><flowPara
         id="flowPara4013" /></flowRoot>    <text
       xml:space="preserve"
       style="font-style:normal;font-weight:normal;font-size:19.7555542px;line-height:1.25;font-family:sans-serif;letter-spacing:0px;word-spacing:0px;display:inline;fill:#ffffff;fill-opacity:1;stroke:none;stroke-width:0.26458332"
       x="28.712831"
       y="287.3269"
       id="text5028"><tspan
         sodipodi:role="line"
         id="tspan5026"
         x="28.712831"
         y="287.3269"
         style="font-size:16.93333244px;fill:#ffffff;fill-opacity:1;stroke-width:0.26458332">contact: lsidir@inf.ethz.ch, hannes@cwi.nl</tspan></text>
  </g>
  <g
     inkscape:groupmode="layer"
     id="layer2"
     inkscape:label="logos"
     style="display:inline">
    <g
       style="overflow:visible"
       id="g5777"
       transform="matrix(0.30573488,0,0,0.30573488,27.867949,49.778555)">
      <polygon
         transform="translate(0.3400176,-24.159617)"
         style="fill:#981b1e"
         id="polygon3"
         points="300.988,53.2 311.126,206.042 4.98,236.038 4.98,44.429 " />
      <polygon
         transform="translate(0.3400176,-24.159617)"
         style="fill:#ffffff"
         id="polygon13"
         points="207.33,32.736 213.94,86.955 141.211,96.212 134.599,41.994 " />
      <polygon
         transform="translate(0.3400176,-24.159617)"
         style="fill:#ffffff"
         id="polygon15"
         points="137.243,104.147 143.854,158.364 71.123,167.622 64.512,113.403 " />
      <polygon
         transform="translate(0.3400176,-24.159617)"
         style="fill:#ffffff"
         id="polygon17"
         points="293.287,84.311 299.897,138.528 227.166,147.786 220.555,93.567 " />
      <polygon
         transform="translate(0.3400176,-24.159617)"
         style="fill:#ffffff"
         id="polygon19"
         points="215.264,93.567 221.877,147.786 149.143,157.041 142.532,102.823 " />
      <polygon
         transform="translate(0.3400176,-24.159617)"
         style="fill:#ffffff"
         id="polygon21"
         points="223.198,153.076 229.811,207.293 157.078,216.551 150.467,162.334 " />
      <line
         style="fill:none;stroke:#ffffff;stroke-width:3.5999999;stroke-linecap:round;stroke-linejoin:round;stroke-opacity:1"
         id="line23"
         y2="46.92738"
         x2="177.25601"
         y1="160.6534"
         x1="191.80202" />
      <line
         style="fill:none;stroke:#ffffff;stroke-width:3.5999999;stroke-linecap:round;stroke-linejoin:round;stroke-opacity:1"
         id="line25"
         y2="111.72439"
         x2="111.13402"
         y1="93.210388"
         x1="257.92001" />
      <text
         y="230.16846"
         x="3.8748367"
         style="font-style:normal;font-variant:normal;font-weight:normal;font-stretch:normal;font-size:41.75989914px;line-height:0%;font-family:ETH;text-align:start;writing-mode:lr-tb;text-anchor:start;fill:#ffffff;fill-opacity:1"
         id="text11"
         font-size="41.7599"
         transform="scale(0.9242349,1.081976)">
        <tspan
           style="font-size:41.14536667px;line-height:1.25"
           y="230.16846"
           x="3.8748367"
           id="tspan5234"
           sodipodi:role="line">
          <tspan
             id="tspan5167"
             style="font-style:italic;font-weight:bold">Systems</tspan>
        </tspan>
      </text>
      <g
         style="font-style:normal;font-variant:normal;font-weight:normal;font-stretch:normal;letter-spacing:normal;word-spacing:normal;text-anchor:start;fill:#ffffff;fill-opacity:1;stroke:none;stroke-linecap:butt;stroke-linejoin:miter;stroke-miterlimit:10.43299961;stroke-dasharray:none;stroke-dashoffset:0;stroke-opacity:1"
         word-spacing="normal"
         letter-spacing="normal"
         font-size-adjust="none"
         font-stretch="normal"
         font-weight="normal"
         font-variant="normal"
         font-style="normal"
         fill-rule="even-odd"
         stroke-miterlimit="10.433"
         xml:space="preserve"
         transform="matrix(1.7768556,0,0,-1.7768556,-54.111196,-107.82789)"
         id="content"><polygon
           style="fill:#ffffff;fill-opacity:1;fill-rule:nonzero;stroke:none;stroke-width:0"
           id="polygon9"
           points="201.12,-190.13 202.6,-184.01 208.45,-184.01 204.66,-200.97 198.77,-200.97 200.14,-194.45 196.28,-194.45 194.71,-200.97 188.64,-200.96 191.44,-188.41 186.19,-188.41 183.39,-200.97 177.15,-200.97 179.95,-188.41 166.26,-188.41 165.8,-190.43 174.24,-190.43 173.35,-194.43 164.85,-194.43 164.36,-196.56 173.18,-196.56 172.2,-200.97 157.12,-200.97 160.9,-184.01 198.5,-184.01 197.16,-190.13 " /><path
           style="fill:#ffffff;fill-opacity:1;fill-rule:nonzero;stroke:none;stroke-width:0"
           id="path11"
           d="m 215.41,-194.04 -3.81,-4.87 c -0.15,-0.19 -0.29,-0.37 -0.47,-0.56 0.19,0.02 0.74,0.02 1.7,0.02 h 1.6 l -0.28,-1.44 h -5.19 l 0.22,1.2 3.64,4.75 c 0.21,0.28 0.42,0.52 0.66,0.77 -0.28,-0.01 -0.63,-0.03 -1.41,-0.03 h -1.73 l 0.25,1.41 h 5.05 z"
           inkscape:connector-curvature="0" /><path
           style="fill:#ffffff;fill-opacity:1;fill-rule:nonzero;stroke:none;stroke-width:0"
           id="path13"
           d="m 220.97,-198.05 -0.02,-0.07 -0.01,-0.09 -0.02,-0.08 -0.01,-0.08 -0.04,-0.18 -0.03,-0.18 -0.04,-0.19 -0.03,-0.19 -0.07,-0.39 -0.04,-0.2 -0.03,-0.19 -0.04,-0.19 -0.03,-0.18 -0.01,-0.08 -0.02,-0.09 -0.01,-0.08 -0.02,-0.08 -0.01,-0.08 -0.01,-0.08 -0.02,-0.07 -0.01,-0.07 h -1.46 c 0.06,0.36 0.21,0.91 0.53,1.85 l -0.03,0.01 c -0.54,-1.07 -1.37,-1.99 -2.51,-1.99 -1.15,0 -1.5,0.81 -1.28,1.98 l 0.79,4.11 h 1.5 l -0.72,-3.74 c -0.13,-0.73 -0.02,-1.03 0.36,-1.03 0.81,0 1.89,1.87 2.15,3.26 l 0.29,1.51 h 1.5 z"
           inkscape:connector-curvature="0" /><path
           style="fill:#ffffff;fill-opacity:1;fill-rule:nonzero;stroke:none;stroke-width:0"
           id="path15"
           d="m 218.05,-193.94 h -0.04 -0.04 l -0.05,0.01 -0.04,0.01 h -0.04 l -0.04,0.02 -0.03,0.01 -0.04,0.01 -0.04,0.02 -0.03,0.02 -0.03,0.02 -0.04,0.02 -0.03,0.02 -0.03,0.03 -0.03,0.02 -0.02,0.03 -0.03,0.03 -0.02,0.03 -0.03,0.03 -0.02,0.03 -0.02,0.03 -0.02,0.03 -0.01,0.04 -0.02,0.03 -0.01,0.04 -0.02,0.04 -0.01,0.03 v 0.04 l -0.01,0.04 -0.01,0.04 v 0.04 0.04 c 0,0.49 0.4,0.85 0.85,0.85 0.47,0 0.81,-0.36 0.81,-0.79 0,-0.49 -0.4,-0.86 -0.86,-0.86 z"
           inkscape:connector-curvature="0" /><path
           style="fill:#ffffff;fill-opacity:1;fill-rule:nonzero;stroke:none;stroke-width:0"
           id="path17"
           d="m 220.48,-193.94 h -0.05 -0.04 l -0.04,0.01 -0.04,0.01 -0.04,0.01 -0.04,0.01 -0.03,0.01 -0.04,0.01 -0.04,0.02 -0.03,0.02 -0.03,0.02 -0.04,0.02 -0.03,0.02 -0.03,0.03 -0.03,0.02 -0.03,0.03 -0.02,0.03 -0.03,0.03 -0.02,0.03 -0.02,0.03 -0.02,0.03 -0.02,0.04 -0.02,0.03 -0.02,0.04 -0.01,0.04 -0.01,0.03 -0.01,0.04 -0.01,0.04 -0.01,0.04 v 0.04 l -0.01,0.04 v 0.05 c 0,0.47 0.41,0.83 0.87,0.83 0.45,0 0.79,-0.36 0.79,-0.79 0,-0.49 -0.4,-0.86 -0.85,-0.86 z"
           inkscape:connector-curvature="0" /><path
           style="fill:#ffffff;fill-opacity:1;fill-rule:nonzero;stroke:none;stroke-width:0"
           id="path19"
           d="m 226.12,-196.28 -0.09,0.02 -0.08,0.01 h -0.08 l -0.09,-0.01 -0.08,-0.02 -0.09,-0.03 -0.08,-0.04 -0.09,-0.05 -0.08,-0.06 -0.09,-0.06 -0.08,-0.08 -0.09,-0.08 -0.08,-0.09 -0.08,-0.09 -0.08,-0.11 -0.08,-0.11 -0.08,-0.12 -0.08,-0.12 -0.07,-0.13 -0.07,-0.14 -0.07,-0.14 -0.07,-0.15 -0.07,-0.15 -0.06,-0.16 -0.06,-0.16 -0.06,-0.17 -0.06,-0.17 -0.05,-0.17 -0.05,-0.18 -0.05,-0.18 -0.04,-0.19 -0.04,-0.18 -0.25,-1.3 h -1.5 l 0.6,3.12 c 0.17,0.84 0.39,2.07 0.51,2.84 h 1.46 c -0.08,-0.45 -0.23,-0.98 -0.52,-1.8 h 0.02 c 0.64,1.26 1.29,2.09 2.32,1.93 z"
           inkscape:connector-curvature="0" /><polygon
           style="fill:#ffffff;fill-opacity:1;fill-rule:nonzero;stroke:none;stroke-width:0"
           id="polygon3174"
           points="227.76,-200.89 226.26,-200.89 227.4,-194.93 228.9,-194.93 " /><path
           style="fill:#ffffff;fill-opacity:1;fill-rule:nonzero;stroke:none;stroke-width:0"
           id="path23"
           d="m 228.41,-194.16 h -0.05 -0.05 l -0.04,0.01 -0.05,0.01 -0.04,0.01 -0.05,0.01 -0.04,0.02 -0.04,0.01 -0.04,0.02 -0.04,0.02 -0.04,0.02 -0.04,0.03 -0.03,0.02 -0.03,0.03 -0.04,0.03 -0.03,0.03 -0.03,0.03 -0.02,0.03 -0.03,0.04 -0.02,0.03 -0.02,0.04 -0.02,0.04 -0.02,0.03 -0.02,0.04 -0.01,0.04 -0.02,0.04 -0.01,0.05 v 0.04 l -0.01,0.04 -0.01,0.04 v 0.05 0.04 c 0.02,0.55 0.49,0.97 1.02,0.97 0.51,0 0.9,-0.41 0.89,-0.86 -0.01,-0.58 -0.49,-1 -1.02,-1 z"
           inkscape:connector-curvature="0" /><path
           style="fill:#ffffff;fill-opacity:1;fill-rule:nonzero;stroke:none;stroke-width:0"
           id="path25"
           d="m 233.82,-196.28 -0.05,0.02 -0.05,0.02 -0.05,0.02 -0.06,0.02 -0.05,0.01 -0.05,0.02 -0.06,0.01 -0.06,0.01 -0.05,0.01 -0.06,0.01 -0.06,0.01 -0.06,0.01 h -0.07 l -0.06,0.01 h -0.07 -0.06 c -1.25,0 -1.83,-1.39 -1.83,-2.51 0,-0.57 0.24,-1.05 1.06,-1.05 0.38,0 0.79,0.08 1.11,0.22 l -0.13,-1.33 c -0.4,-0.14 -0.91,-0.24 -1.43,-0.24 -1.59,0 -2.2,0.81 -2.2,2.06 0,2.29 1.34,4.15 3.51,4.15 0.44,0 0.82,-0.07 1.19,-0.16 z"
           inkscape:connector-curvature="0" /><path
           style="fill:#ffffff;fill-opacity:1;fill-rule:nonzero;stroke:none;stroke-width:0"
           id="path27"
           d="m 239.34,-200.89 h -1.51 l 0.72,3.74 c 0.15,0.74 0.02,1.04 -0.36,1.04 -0.8,0 -1.89,-1.87 -2.15,-3.27 l -0.29,-1.51 h -1.5 l 1.67,8.76 h 1.5 l -0.47,-2.52 c -0.11,-0.53 -0.29,-1.13 -0.65,-2.12 l 0.03,-0.02 c 0.54,1.07 1.37,2 2.51,2 1.15,0 1.5,-0.82 1.28,-1.98 z"
           inkscape:connector-curvature="0" /></g>      <text
         id="text5181"
         y="248.92387"
         x="187.5556"
         style="font-style:normal;font-weight:normal;line-height:0%;font-family:ETH;fill:#000000;fill-opacity:1;stroke:none;stroke-width:1px;stroke-linecap:butt;stroke-linejoin:miter;stroke-opacity:1"
         xml:space="preserve"><tspan
           style="font-weight:bold;font-size:33.02168274px;line-height:1.25;fill:#ffffff;fill-opacity:1"
           y="248.92387"
           x="187.5556"
           id="tspan5183"
           sodipodi:role="line">@</tspan></text>
    </g>
    <g
       transform="matrix(0.26458333,0,0,0.26458333,657.6198,1048.8095)"
       id="Layer_1">
      <path
         id="path4617"
         d="m 425.538,330.267 c -1.764,0.554 -4.932,0.061 -7.475,0.061 -24.412,0 -43.179,19.295 -47.062,40.014 -2.674,14.261 4.258,21.987 14.492,21.987 7.74,0 16.315,-2.938 23.463,-10.539 h 0.246 l -2.853,10.419 h 16.605 c 1.643,-7.38 4.418,-16.157 7.354,-23.734 l 27.292,-79.063 -19.787,5.136 z m -10.746,31.73 c -4.518,11.385 -12.33,16.749 -17.941,16.749 -5.467,0 -8.198,-4.028 -6.848,-11.2 2.139,-11.467 12.586,-23.65 24.193,-23.65 2.977,0 5.59,0.857 6.869,2.07 z"
         inkscape:connector-curvature="0"
         style="fill:#0080ff" />
      <path
         id="path4619"
         d="m 17.324,392.742 9.986,-28.071 c 4.317,-12.375 12.599,-21.022 18.968,-21.022 4.538,0 5.345,3.306 4.523,7.641 -0.391,2.157 -1.253,4.586 -2.122,7.134 l -13.048,34.318 h 18.048 l 10.625,-28.318 c 4.85,-12.641 12.595,-20.775 18.821,-20.775 4.295,0 5.676,3.041 4.854,7.375 -0.458,2.423 -1.358,5.113 -2.327,7.52 l -12.756,34.198 h 18.055 l 13.65,-36.354 c 1.109,-3.187 2.573,-8.162 3.037,-10.708 1.874,-9.99 -2.71,-15.802 -12.347,-15.802 -8.279,0 -16.867,3.553 -23.983,11.036 0.43,-5.096 -2.858,-11.036 -12.988,-11.036 -8.178,0 -16.584,3.331 -23.801,10.79 h -0.222 l 3.104,-10.609 H 22.826 c -1.844,5.675 -4.146,12.498 -7.046,20.429 L 0,392.742 Z"
         inkscape:connector-curvature="0"
         style="fill:#000a56" />
      <path
         id="path4621"
         d="m 158.053,329.878 c -22.729,0 -40.853,17.384 -44.679,37.813 -2.79,14.857 5.759,24.99 21.703,24.99 22.12,0 40.648,-16.297 44.702,-37.937 2.566,-13.604 -4.893,-24.866 -21.726,-24.866 m -5.075,13.771 c 7.503,0 9.058,5.792 8.036,11.218 -1.89,10.047 -10.439,24.066 -20.593,24.066 -6.72,0 -9.54,-4.604 -8.262,-11.488 1.726,-9.188 9.886,-23.796 20.819,-23.796"
         inkscape:connector-curvature="0"
         style="fill:#000a56" />
      <path
         id="path4623"
         d="m 194.611,392.742 10.545,-27.803 c 5.199,-13.854 14.033,-21.415 20.389,-21.415 5.015,0 6.06,3.085 5.212,7.561 -0.429,2.298 -1.146,4.747 -1.968,6.927 l -13.544,34.73 h 18.702 l 13.588,-36.397 c 1.067,-3.083 2.438,-7.682 2.957,-10.521 1.908,-10.134 -2.757,-15.946 -12.742,-15.946 -8.548,0 -17.328,3.45 -24.953,10.909 h -0.243 L 215.766,330 h -16.529 c -1.975,5.673 -4.153,12.495 -7.313,20.449 l -15.911,42.293 z"
         inkscape:connector-curvature="0"
         style="fill:#000a56" />
      <path
         id="path4625"
         d="m 302.98,375.502 c -5.123,2.092 -11.036,3.431 -18.009,3.431 -5.526,0 -9.615,-1.437 -11.607,-4.194 -1.007,-1.561 -1.218,-3.986 -1.071,-5.527 25.716,0.556 41.454,-5.16 44.347,-20.635 C 318.784,337.213 311.526,330 299.157,330 c -22.958,0 -39.544,19.545 -43.056,38.307 -2.753,14.674 4.026,24.374 21.537,24.374 7.257,0 16.662,-1.233 24.229,-4.792 z m -2.678,-27.047 c -1.043,5.551 -8.751,7.377 -23.633,7.233 2.349,-5.423 8.754,-12.164 17.572,-12.164 4.354,0 6.598,2.054 6.061,4.931"
         inkscape:connector-curvature="0"
         style="fill:#000a56" />
      <path
         id="path4627"
         d="m 343.212,318.038 -4.498,11.84 h -7.975 l -5.162,13.771 h 7.899 l -9.45,25.437 c -1.955,5 -3.007,8.531 -3.605,11.653 -1.289,6.99 2.965,11.942 13.984,11.942 3.821,0 8.539,-0.452 11.131,-1.233 l 4.457,-12.785 c -1.599,0.27 -3.531,0.27 -5.068,0.27 -4.109,0 -4.975,-2.243 -4.406,-5.386 0.439,-2.22 1.589,-5.628 2.572,-8.136 l 8.326,-21.762 h 13.375 l 5.428,-13.771 h -13.526 l 6.414,-16.976 z"
         inkscape:connector-curvature="0"
         style="fill:#000a56" />
      <path
         id="path4629"
         d="m 439.146,364.447 c -1.42,3.593 -2.754,7.293 -3.453,11.014 -2.033,10.915 4.072,17.219 18.864,17.219 28.979,0 46.16,-22.79 49.836,-42.354 1.979,-10.566 -1.869,-20.448 -14.551,-20.448 -7.986,0 -15.943,3.184 -21.701,8.235 h -0.266 l 13.325,-37.148 -20.205,4.537 z m 19.958,-3.847 c 4.25,-10.519 12.291,-16.951 19.229,-16.951 5.904,0 7.734,4.436 6.625,10.396 -1.975,10.523 -12.557,24.887 -23.797,24.887 -4.541,0 -6.787,-2.362 -6.11,-6.697 0.328,-2.468 1.155,-4.711 1.916,-6.685 z"
         inkscape:connector-curvature="0"
         style="fill:#0080ff" />
      <path
         id="path4631"
         d="m 512.268,412.04 c 41.094,-17.448 71.371,-59.472 71.371,-96.817 0,-55.735 -61.592,-100.884 -137.545,-100.884 -63.44,0 -132.177,29.165 -154.211,72.401 23.773,-33.192 69.642,-52.505 123.525,-52.505 75.975,0 134.348,42.806 134.348,98.519 0,26.411 -15.644,60.628 -37.488,79.286"
         inkscape:connector-curvature="0"
         style="fill:#000a56" />
      <path
         id="path4633"
         d="M 573.776,257.62 C 538.53,205.769 469.233,198.745 444.243,199.523 c -91.757,0 -153.101,49.818 -172.975,92.723 -0.534,1.154 -38.244,9.125 -62.969,16.115 -1.232,0.35 -1.619,0.76 -1.397,-0.35 41.106,-82.964 110.484,-136.399 213.254,-136.399 69.034,-0.756 126.94,32.76 153.62,86.008"
         inkscape:connector-curvature="0"
         style="fill:#0080ff" />
      <path
         id="path4635"
         d="M 573.776,257.62 C 538.53,205.769 469.233,198.745 444.243,199.523 c -91.757,0 -153.101,49.818 -172.975,92.723 -0.534,1.154 -38.244,9.125 -62.969,16.115 -1.232,0.35 -1.619,0.76 -1.397,-0.35 41.106,-82.964 110.484,-136.399 213.254,-136.399 69.034,-0.756 126.94,32.76 153.62,86.008"
         inkscape:connector-curvature="0"
         style="fill:#0080ff" />
    </g>
    <g
       style="display:inline"
       id="g4786"
       transform="matrix(1.0662918,0,0,1.0662918,5.2350887,1104.3792)">
      <g
         id="g4780">
        <path
           id="path4762"
           d="m 109.18,39.305 c -0.81,4.017 -3.913,4.221 -4.528,4.221 -1.752,0 -2.797,-1.012 -2.797,-2.705 0,-0.386 0.057,-0.912 0.155,-1.439 l 1.919,-9.562 0.008,-0.037 h -2.267 l -1.956,9.805 -0.026,0.14 c -0.084,0.443 -0.163,0.863 -0.163,1.408 0,2.634 1.73,4.402 4.309,4.402 1.886,0 3.401,-0.619 4.507,-1.841 l -0.294,1.615 -0.007,0.038 h 2.235 l 3.088,-15.53 0.006,-0.037 h -2.299 z"
           inkscape:connector-curvature="0" />
        <path
           id="path4764"
           d="m 124.635,29.595 c -1.752,0 -3.304,0.716 -4.281,1.974 l 0.351,-1.748 0.007,-0.037 h -2.235 l -3.089,15.529 -0.007,0.038 h 2.269 l 1.891,-9.524 c 0.483,-2.445 2.36,-4.218 4.465,-4.218 0.904,0 1.616,0.356 2.176,1.087 l 0.021,0.028 1.841,-1.649 -0.019,-0.023 c -0.851,-0.982 -1.961,-1.457 -3.39,-1.457 z"
           inkscape:connector-curvature="0" />
        <polygon
           id="polygon4766"
           points="84.574,43.448 84.186,45.351 95.164,45.351 95.554,43.337 87.348,43.337 97.679,31.692 97.684,31.685 98.071,29.784 87.534,29.784 87.149,31.759 87.143,31.797 94.878,31.797 84.579,43.442 " />
        <polygon
           id="polygon4768"
           points="128.332,45.313 128.324,45.351 130.591,45.351 133.684,29.784 131.455,29.784 " />
        <path
           id="path4770"
           d="m 159.072,29.596 c -1.865,0 -3.321,0.571 -4.44,1.75 l 1.759,-8.668 h -2.268 l -4.555,22.676 h 2.268 l 1.891,-9.525 c 0.811,-4.015 3.941,-4.218 4.56,-4.218 1.733,0 2.769,1.011 2.769,2.704 0,0.384 -0.059,0.908 -0.158,1.44 l -1.924,9.6 h 2.266 l 1.988,-9.809 c 0.096,-0.521 0.159,-0.962 0.159,-1.547 -0.002,-2.634 -1.738,-4.403 -4.315,-4.403 z"
           inkscape:connector-curvature="0" />
        <path
           id="path4772"
           d="m 144.041,29.595 c -4.113,0 -7,2.897 -7.923,7.949 -0.166,0.846 -0.224,1.792 -0.224,2.397 0,3.452 2.096,5.597 5.472,5.597 1.963,0 3.755,-0.752 5.181,-2.177 l 0.021,-0.021 -1.308,-1.595 -0.023,-0.028 -0.024,0.027 c -1.203,1.266 -2.281,1.783 -3.721,1.783 -1.609,0 -3.33,-0.958 -3.33,-3.648 0,-0.842 0.1,-1.538 0.249,-2.322 0.243,-1.32 0.79,-3.164 2.005,-4.447 0.966,-0.996 2.111,-1.5 3.406,-1.5 1.352,0 2.197,0.481 3.021,1.715 l 0.02,0.031 1.664,-1.406 0.023,-0.02 -0.018,-0.025 c -1.136,-1.599 -2.522,-2.31 -4.491,-2.31 z"
           inkscape:connector-curvature="0" />
        <polygon
           id="polygon4774"
           points="135.133,22.677 132.869,22.677 132.296,25.512 134.568,25.512 " />
        <polygon
           id="polygon4776"
           points="113.084,22.677 110.823,22.677 110.249,25.512 112.522,25.512 " />
        <polygon
           id="polygon4778"
           points="107.039,22.677 104.777,22.677 104.203,25.512 106.475,25.512 " />
      </g>
      <g
         id="g4784">
        <polygon
           id="polygon4782"
           points="22.681,45.353 39.971,45.353 41.104,39.685 30.895,39.685 31.514,36.567 41.719,36.567 42.747,31.464 32.539,31.464 33.157,28.345 49.337,28.345 45.921,45.353 53.008,45.353 56.424,28.345 62.374,28.345 58.958,45.353 66.046,45.353 67.795,36.567 72.896,36.567 71.146,45.353 78.233,45.353 82.789,22.677 75.702,22.677 73.91,31.464 68.809,31.464 70.6,22.677 27.235,22.677 " />
      </g>
    </g>
    <text
       xml:space="preserve"
       style="font-style:normal;font-weight:normal;font-size:19.7555542px;line-height:1.25;font-family:sans-serif;letter-spacing:0px;word-spacing:0px;fill:#000000;fill-opacity:1;stroke:none;stroke-width:0.26458332"
       x="29.419653"
       y="143.93506"
       id="text4858"><tspan
         sodipodi:role="line"
         id="tspan4856"
         x="29.419653"
         y="161.41409"
         style="stroke-width:0.26458332" /></text>
    <text
       xml:space="preserve"
       style="font-style:normal;font-variant:normal;font-weight:bold;font-stretch:normal;font-size:9.87777778px;line-height:1.25;font-family:sans-serif;-inkscape-font-specification:'sans-serif, Bold';font-variant-ligatures:normal;font-variant-caps:normal;font-variant-numeric:normal;font-feature-settings:normal;text-align:start;letter-spacing:0px;word-spacing:0px;writing-mode:lr;text-anchor:start;fill:#ffffff;fill-opacity:1;stroke:none;stroke-width:0.25539869;"
       x="28.736685"
       y="139.65587"
       id="text4866"><tspan
         sodipodi:role="line"
         id="tspan4864"
         x="28.736685"
         y="139.65587"
         style="font-style:normal;font-variant:normal;font-weight:bold;font-stretch:normal;font-size:9.87777778px;font-family:sans-serif;-inkscape-font-specification:'sans-serif, Bold';font-variant-ligatures:normal;font-variant-caps:normal;font-variant-numeric:normal;font-feature-settings:normal;text-align:start;writing-mode:lr;text-anchor:start;fill:#ffffff;fill-opacity:1;stroke-width:0.25539869;">Department of Computer Science</tspan><tspan
         sodipodi:role="line"
         x="28.736685"
         y="150.2392"
         style="font-style:normal;font-variant:normal;font-weight:bold;font-stretch:normal;font-size:9.87777778px;font-family:sans-serif;-inkscape-font-specification:'sans-serif, Bold';font-variant-ligatures:normal;font-variant-caps:normal;font-variant-numeric:normal;font-feature-settings:normal;text-align:start;writing-mode:lr;text-anchor:start;fill:#ffffff;fill-opacity:1;stroke-width:0.25539869;"
         id="tspan4868" /><tspan
         sodipodi:role="line"
         x="28.736685"
         y="160.82254"
         style="font-style:normal;font-variant:normal;font-weight:bold;font-stretch:normal;font-size:9.87777778px;font-family:sans-serif;-inkscape-font-specification:'sans-serif, Bold';font-variant-ligatures:normal;font-variant-caps:normal;font-variant-numeric:normal;font-feature-settings:normal;text-align:start;writing-mode:lr;text-anchor:start;fill:#ffffff;fill-opacity:1;stroke-width:0.25539869;"
         id="tspan4870" /></text>
    <g
       id="g4797"
       transform="matrix(0.75076006,0,0,0.75076006,659.58651,28.535355)">
      <polygon
         id="polygon4691"
         points="203.373,31.001 20.173,31.001 56.769,112.756 203.373,80.901 "
         style="fill:#d11242" />
      <g
         id="g4755">
        <path
           id="path4693"
           d="m 75.674,47.544 c -5.842,0 -8.762,4.688 -8.762,14.063 0,4.763 0.689,8.437 2.065,11.022 1.377,2.586 3.348,3.879 5.915,3.879 1.414,0 2.754,-0.519 4.019,-1.554 1.451,-1.183 2.622,-2.922 3.516,-5.215 0.632,-1.849 1.413,-2.774 2.343,-2.774 0.744,0 1.32,0.306 1.731,0.917 0.409,0.613 0.614,1.64 0.614,3.086 v 0.889 c -0.075,0.482 -0.112,0.834 -0.112,1.056 -0.149,1.557 -0.373,2.641 -0.67,3.252 -0.297,0.612 -0.893,1.251 -1.785,1.919 -2.121,1.149 -3.238,1.742 -3.349,1.778 -2.382,1.038 -4.707,1.557 -6.976,1.557 -4.428,0 -7.963,-1.758 -10.603,-5.274 -2.643,-3.516 -3.962,-8.25 -3.962,-14.203 0,-5.728 1.366,-10.37 4.101,-13.924 2.735,-3.553 6.316,-5.329 10.743,-5.329 0.744,0 1.423,0.056 2.037,0.167 0.613,0.111 1.832,0.428 3.656,0.949 0.631,0.223 1.152,0.334 1.562,0.334 0.112,0 0.594,-0.092 1.451,-0.279 0.856,-0.185 1.395,-0.279 1.619,-0.279 1.227,0 1.841,1.08 1.841,3.237 l 0.223,7.016 c 0,1.797 -0.688,2.695 -2.064,2.695 -1.34,0 -2.104,-0.673 -2.29,-2.021 -0.372,-2.658 -1.031,-4.484 -1.98,-5.476 -0.949,-0.992 -2.577,-1.488 -4.883,-1.488"
           inkscape:connector-curvature="0"
           style="fill:#ffffff" />
        <path
           id="path4695"
           d="m 117.542,48.159 -2.293,-10e-4 c -2.462,0 -3.692,-0.809 -3.692,-2.426 0,-0.625 0.224,-1.139 0.67,-1.544 0.446,-0.404 0.985,-0.607 1.618,-0.607 h 9.822 c 1.749,0 2.623,0.875 2.623,2.624 0,0.745 -0.242,1.255 -0.725,1.534 -0.485,0.279 -1.415,0.419 -2.791,0.419 l -3.909,30.861 c -0.222,1.86 -1.3,2.791 -3.234,2.791 -0.782,0 -1.379,-0.15 -1.786,-0.447 -0.558,-0.41 -1.06,-1.302 -1.508,-2.679 l -4.575,-13.115 -4.409,13.227 c -0.659,2.008 -1.849,3.014 -3.569,3.014 -1.905,0 -3.002,-1.042 -3.296,-3.126 L 91.8,48.158 c -1.226,0 -2.11,-0.196 -2.649,-0.586 -0.54,-0.391 -0.81,-0.977 -0.81,-1.758 0,-0.67 0.261,-1.209 0.781,-1.618 0.522,-0.41 1.21,-0.615 2.066,-0.615 h 9.877 c 1.525,0 2.288,0.699 2.288,2.096 0,1.654 -0.982,2.481 -2.945,2.481 l -2,-0.003 2.968,22.273 3.682,-11.043 c 0.594,-1.755 1.503,-2.633 2.729,-2.633 1.336,0 2.3,0.873 2.894,2.617 l 4.355,12.141 z"
           inkscape:connector-curvature="0"
           style="fill:#ffffff" />
        <path
           id="path4697"
           d="m 147.775,48.158 h -4.129 V 75.95 h 6.418 c 0.707,0 1.292,0.214 1.758,0.642 0.464,0.428 0.698,0.995 0.698,1.702 0,0.67 -0.243,1.21 -0.725,1.619 -0.485,0.409 -1.1,0.613 -1.842,0.613 h -18.64 c -0.782,0 -1.415,-0.204 -1.898,-0.613 -0.485,-0.409 -0.725,-0.985 -0.725,-1.731 0,-0.669 0.223,-1.208 0.669,-1.618 0.446,-0.409 1.06,-0.614 1.842,-0.614 h 5.749 V 48.158 h -5.971 c -0.671,0 -1.221,-0.214 -1.648,-0.641 -0.428,-0.428 -0.641,-0.977 -0.641,-1.647 0,-0.706 0.223,-1.264 0.669,-1.674 0.446,-0.409 1.06,-0.614 1.842,-0.614 h 17.746 c 1.712,0 2.567,0.744 2.567,2.232 0,0.93 -0.27,1.554 -0.809,1.87 -0.539,0.316 -1.516,0.474 -2.93,0.474"
           inkscape:connector-curvature="0"
           style="fill:#ffffff" />
        <g
           id="g4855"
           transform="translate(0,1.2123892)">
          <g
             id="g4884"
             transform="translate(0,6.8045435)">
            <path
               inkscape:connector-curvature="0"
               d="m 5.532,114.277 c -0.583,-0.344 -1.23,-0.516 -1.905,-0.516 -2.13,0 -3.545,1.535 -3.545,3.611 0,2.17 1.561,3.612 3.479,3.612 0.661,0 1.548,-0.172 2.011,-0.45 l 0.079,1.283 c -0.701,0.291 -1.561,0.331 -2.104,0.331 -2.923,0 -4.868,-1.878 -4.868,-4.815 0,-2.844 2.064,-4.736 4.882,-4.736 0.714,0 1.416,0.105 2.077,0.396 z"
               id="path4699"
               style="fill:#ffffff;fill-opacity:1" />
            <path
               inkscape:connector-curvature="0"
               d="m 12.289,121.712 c -0.476,0.172 -1.019,0.437 -2.13,0.437 -2.395,0 -3.493,-1.455 -3.493,-3.651 0,-1.998 1.257,-3.413 3.162,-3.413 2.249,0 2.977,1.641 2.977,3.81 H 7.99 c 0,1.337 1.045,2.25 2.222,2.25 0.82,0 1.773,-0.424 2.077,-0.676 z m -0.808,-3.744 c 0,-1.031 -0.608,-1.879 -1.68,-1.879 -1.217,0 -1.72,1.006 -1.813,1.879 z"
               id="path4701"
               style="fill:#ffffff;fill-opacity:1" />
            <path
               inkscape:connector-curvature="0"
               d="m 14.468,115.243 h 1.204 v 1.071 h 0.026 c 0.371,-0.768 1.27,-1.23 2.209,-1.23 1.746,0 2.527,1.085 2.527,2.897 v 4.008 H 19.19 v -3.492 c 0,-1.574 -0.344,-2.342 -1.429,-2.408 -1.416,0 -2.051,1.139 -2.051,2.779 v 3.121 h -1.243 v -6.746 z"
               id="path4703"
               style="fill:#ffffff;fill-opacity:1" />
            <path
               inkscape:connector-curvature="0"
               d="m 26.132,116.248 h -1.786 v 3.69 c 0,0.781 0.477,1.205 1.045,1.205 0.383,0 0.661,-0.119 0.847,-0.238 v 1.059 c -0.278,0.078 -0.662,0.185 -1.059,0.185 -1.283,0 -2.077,-0.608 -2.077,-1.958 v -3.942 h -1.521 v -1.005 h 1.521 v -1.562 l 1.244,-0.397 v 1.959 h 1.786 z"
               id="path4705"
               style="fill:#ffffff;fill-opacity:1" />
            <path
               inkscape:connector-curvature="0"
               d="m 27.691,115.243 h 1.165 v 1.045 h 0.026 c 0.331,-0.701 1.045,-1.204 1.759,-1.204 0.371,0 0.556,0.04 0.82,0.093 v 1.111 c -0.225,-0.093 -0.476,-0.119 -0.688,-0.119 -1.111,0 -1.839,1.059 -1.839,2.752 v 3.068 H 27.69 v -6.746 z"
               id="path4707"
               style="fill:#ffffff;fill-opacity:1" />
            <path
               inkscape:connector-curvature="0"
               d="m 38.802,121.99 h -1.204 v -1.071 h -0.026 c -0.371,0.768 -1.27,1.23 -2.209,1.23 -1.746,0 -2.526,-1.085 -2.526,-2.897 v -4.008 h 1.243 v 3.492 c 0,1.574 0.344,2.342 1.429,2.408 1.416,0 2.051,-1.139 2.051,-2.779 v -3.121 h 1.244 v 6.746 z"
               id="path4709"
               style="fill:#ffffff;fill-opacity:1" />
            <path
               inkscape:connector-curvature="0"
               d="m 40.901,115.243 h 1.164 v 0.979 h 0.026 c 0.477,-0.78 1.151,-1.138 2.144,-1.138 0.78,0 1.562,0.397 1.918,1.31 0.463,-0.965 1.482,-1.31 2.091,-1.31 1.72,0 2.342,1.111 2.342,2.579 v 4.326 h -1.244 v -4.021 c 0,-0.833 -0.198,-1.879 -1.204,-1.879 -1.27,0 -1.772,1.244 -1.772,2.501 v 3.399 h -1.243 v -4.021 c 0,-0.833 -0.199,-1.879 -1.204,-1.879 -1.271,0 -1.772,1.244 -1.772,2.501 v 3.399 h -1.244 v -6.746 z"
               id="path4711"
               style="fill:#ffffff;fill-opacity:1" />
            <path
               inkscape:connector-curvature="0"
               d="m 55.314,112.756 h 1.455 l 2.21,7.911 h 0.026 l 1.971,-7.911 h 1.879 l 1.997,7.911 h 0.026 l 2.21,-7.911 h 1.402 l -2.845,9.233 h -1.706 l -2.011,-8.069 h -0.027 l -2.023,8.069 h -1.773 z"
               id="path4713"
               style="fill:#ffffff;fill-opacity:1" />
            <path
               inkscape:connector-curvature="0"
               d="m 71.051,113.736 h -1.402 v -1.402 h 1.402 z m -1.323,1.507 h 1.244 v 6.746 h -1.244 z"
               id="path4715"
               style="fill:#ffffff;fill-opacity:1" />
            <path
               inkscape:connector-curvature="0"
               d="m 72.743,120.667 c 0.489,0.317 1.19,0.477 1.548,0.477 0.568,0 1.27,-0.238 1.27,-0.967 0,-1.23 -2.923,-1.124 -2.923,-3.016 0,-1.402 1.045,-2.077 2.381,-2.077 0.582,0 1.059,0.119 1.548,0.265 l -0.105,1.085 c -0.278,-0.173 -1.019,-0.345 -1.311,-0.345 -0.635,0 -1.19,0.266 -1.19,0.82 0,1.377 2.924,0.979 2.924,3.136 0,1.442 -1.15,2.104 -2.354,2.104 -0.635,0 -1.283,-0.065 -1.853,-0.37 z"
               id="path4717"
               style="fill:#ffffff;fill-opacity:1" />
            <path
               inkscape:connector-curvature="0"
               d="m 78.389,112.068 h 1.243 v 5.914 l 2.712,-2.738 h 1.693 l -3.135,2.989 3.532,3.757 h -1.786 l -3.017,-3.466 v 3.466 h -1.243 v -9.922 z"
               id="path4719"
               style="fill:#ffffff;fill-opacity:1" />
            <path
               inkscape:connector-curvature="0"
               d="m 91.708,121.99 h -1.203 v -1.071 h -0.026 c -0.371,0.768 -1.271,1.23 -2.21,1.23 -1.746,0 -2.526,-1.085 -2.526,-2.897 v -4.008 h 1.243 v 3.492 c 0,1.574 0.344,2.342 1.429,2.408 1.416,0 2.051,-1.139 2.051,-2.779 v -3.121 h 1.243 v 6.746 z"
               id="path4721"
               style="fill:#ffffff;fill-opacity:1" />
            <path
               inkscape:connector-curvature="0"
               d="m 93.821,115.243 h 1.204 v 1.071 h 0.026 c 0.37,-0.768 1.27,-1.23 2.209,-1.23 1.746,0 2.526,1.085 2.526,2.897 v 4.008 h -1.243 v -3.492 c 0,-1.574 -0.344,-2.342 -1.429,-2.408 -1.416,0 -2.051,1.139 -2.051,2.779 v 3.121 H 93.82 v -6.746 z"
               id="path4723"
               style="fill:#ffffff;fill-opacity:1" />
            <path
               inkscape:connector-curvature="0"
               d="m 106.676,121.037 h -0.026 c -0.331,0.503 -1.098,1.111 -2.302,1.111 -2.037,0 -2.897,-1.813 -2.897,-3.651 0,-1.813 0.953,-3.413 2.91,-3.413 1.178,0 1.853,0.463 2.236,1.085 h 0.026 v -4.102 h 1.243 v 9.922 h -1.19 z m -2.037,0.107 c 1.402,0 1.984,-1.39 1.984,-2.514 0,-1.258 -0.648,-2.541 -1.998,-2.541 -1.349,0 -1.878,1.271 -1.852,2.501 -0.025,1.058 0.53,2.554 1.866,2.554 z"
               id="path4725"
               style="fill:#ffffff;fill-opacity:1" />
            <path
               inkscape:connector-curvature="0"
               d="m 115.153,121.712 c -0.477,0.172 -1.02,0.437 -2.13,0.437 -2.395,0 -3.493,-1.455 -3.493,-3.651 0,-1.998 1.257,-3.413 3.162,-3.413 2.249,0 2.977,1.641 2.977,3.81 h -4.815 c 0,1.337 1.045,2.25 2.223,2.25 0.82,0 1.772,-0.424 2.077,-0.676 v 1.243 z m -0.808,-3.744 c 0,-1.031 -0.608,-1.879 -1.68,-1.879 -1.218,0 -1.72,1.006 -1.813,1.879 z"
               id="path4727"
               style="fill:#ffffff;fill-opacity:1" />
            <path
               inkscape:connector-curvature="0"
               d="m 128.522,117.003 c -0.119,1.494 -0.528,2.354 -1.058,3.161 l 1.613,1.825 h -1.653 l -0.754,-0.898 c -0.662,0.754 -1.469,1.058 -2.646,1.058 -1.825,0 -2.977,-1.032 -2.977,-2.579 0,-1.402 0.82,-2.197 2.064,-2.699 -0.49,-0.596 -0.953,-1.217 -0.953,-2.104 0,-1.482 1.085,-2.17 2.408,-2.17 1.204,0 2.288,0.635 2.288,2.09 0,1.178 -1.045,1.972 -2.023,2.408 l 1.878,2.143 c 0.357,-0.568 0.503,-1.177 0.569,-2.234 h 1.244 z m -4.26,4.141 c 0.86,0 1.416,-0.557 1.707,-0.887 l -2.223,-2.606 c -0.701,0.477 -1.297,0.913 -1.297,1.825 0.001,1.019 0.861,1.668 1.813,1.668 z m -0.039,-4.789 c 0.556,-0.266 1.389,-0.834 1.389,-1.614 0,-0.847 -0.463,-1.138 -1.098,-1.138 -0.608,0 -1.111,0.396 -1.111,1.19 0,0.622 0.423,1.124 0.82,1.562 z"
               id="path4729"
               style="fill:#ffffff;fill-opacity:1" />
            <path
               inkscape:connector-curvature="0"
               d="m 134.35,112.756 h 1.322 v 9.233 h -1.322 z"
               id="path4731"
               style="fill:#ffffff;fill-opacity:1" />
            <path
               inkscape:connector-curvature="0"
               d="m 137.908,115.243 h 1.204 v 1.071 h 0.026 c 0.37,-0.768 1.27,-1.23 2.209,-1.23 1.746,0 2.526,1.085 2.526,2.897 v 4.008 h -1.243 v -3.492 c 0,-1.574 -0.344,-2.342 -1.429,-2.408 -1.416,0 -2.051,1.139 -2.051,2.779 v 3.121 h -1.243 v -6.746 z"
               id="path4733"
               style="fill:#ffffff;fill-opacity:1" />
            <path
               inkscape:connector-curvature="0"
               d="m 146.793,116.248 h -1.588 v -1.005 h 1.588 v -0.622 c 0,-1.641 0.424,-2.712 2.263,-2.712 0.317,0 0.582,0.039 0.833,0.079 l -0.053,1.005 c -0.146,-0.053 -0.384,-0.078 -0.596,-0.078 -1.071,0 -1.203,0.688 -1.203,1.6 v 0.729 h 1.785 v 1.005 h -1.785 v 5.741 h -1.244 z"
               id="path4735"
               style="fill:#ffffff;fill-opacity:1" />
            <path
               inkscape:connector-curvature="0"
               d="m 154.12,115.084 c 2.051,0 3.427,1.481 3.427,3.532 0,1.932 -1.402,3.532 -3.427,3.532 -2.037,0 -3.439,-1.601 -3.439,-3.532 -0.001,-2.05 1.375,-3.532 3.439,-3.532 z m 0,6.06 c 1.456,0 2.104,-1.323 2.104,-2.527 0,-1.283 -0.78,-2.527 -2.104,-2.527 -1.336,0 -2.116,1.244 -2.116,2.527 -0.001,1.204 0.648,2.527 2.116,2.527 z"
               id="path4737"
               style="fill:#ffffff;fill-opacity:1" />
            <path
               inkscape:connector-curvature="0"
               d="m 159.21,115.243 h 1.164 v 1.045 h 0.026 c 0.331,-0.701 1.045,-1.204 1.76,-1.204 0.37,0 0.556,0.04 0.82,0.093 v 1.111 c -0.226,-0.093 -0.477,-0.119 -0.688,-0.119 -1.111,0 -1.839,1.059 -1.839,2.752 v 3.068 h -1.243 z"
               id="path4739"
               style="fill:#ffffff;fill-opacity:1" />
            <path
               inkscape:connector-curvature="0"
               d="m 164.34,115.243 h 1.164 v 0.979 h 0.026 c 0.477,-0.78 1.151,-1.138 2.144,-1.138 0.78,0 1.562,0.397 1.918,1.31 0.463,-0.965 1.482,-1.31 2.091,-1.31 1.72,0 2.342,1.111 2.342,2.579 v 4.326 h -1.244 v -4.021 c 0,-0.833 -0.198,-1.879 -1.204,-1.879 -1.27,0 -1.772,1.244 -1.772,2.501 v 3.399 h -1.243 v -4.021 c 0,-0.833 -0.199,-1.879 -1.204,-1.879 -1.271,0 -1.772,1.244 -1.772,2.501 v 3.399 h -1.244 v -6.746 z"
               id="path4741"
               style="fill:#ffffff;fill-opacity:1" />
            <path
               inkscape:connector-curvature="0"
               d="m 176.426,115.72 c 0.622,-0.371 1.362,-0.636 2.223,-0.636 1.932,0 2.712,0.952 2.712,2.792 v 2.791 c 0,0.768 0.026,1.125 0.053,1.322 h -1.164 v -0.873 h -0.026 c -0.291,0.41 -0.953,1.032 -2.091,1.032 -1.455,0 -2.474,-0.635 -2.474,-2.104 0,-1.693 1.853,-2.223 3.136,-2.223 0.489,0 0.833,0 1.322,0.026 0,-1.164 -0.423,-1.76 -1.666,-1.76 -0.701,0 -1.456,0.266 -1.958,0.688 z m 3.691,3.055 c -0.264,0 -0.528,-0.025 -0.793,-0.025 -0.675,0 -2.342,0.105 -2.342,1.296 0,0.714 0.688,1.099 1.257,1.099 1.23,0 1.878,-0.768 1.878,-1.773 z"
               id="path4743"
               style="fill:#ffffff;fill-opacity:1" />
            <path
               inkscape:connector-curvature="0"
               d="m 187.046,116.248 h -1.786 v 3.69 c 0,0.781 0.477,1.205 1.045,1.205 0.384,0 0.662,-0.119 0.847,-0.238 v 1.059 c -0.277,0.078 -0.661,0.185 -1.058,0.185 -1.283,0 -2.077,-0.608 -2.077,-1.958 v -3.942 h -1.521 v -1.005 h 1.521 v -1.562 l 1.243,-0.397 v 1.959 h 1.786 z"
               id="path4745"
               style="fill:#ffffff;fill-opacity:1" />
            <path
               inkscape:connector-curvature="0"
               d="m 190.086,113.736 h -1.402 v -1.402 h 1.402 z m -1.323,1.507 h 1.244 v 6.746 h -1.244 z"
               id="path4747"
               style="fill:#ffffff;fill-opacity:1" />
            <path
               inkscape:connector-curvature="0"
               d="m 196.568,116.38 c -0.477,-0.197 -0.952,-0.291 -1.35,-0.291 -1.389,0 -2.17,1.244 -2.17,2.527 0,1.204 0.648,2.527 2.249,2.527 0.424,0 0.953,-0.133 1.337,-0.385 l 0.092,1.111 c -0.516,0.238 -1.11,0.278 -1.561,0.278 -2.037,0 -3.439,-1.601 -3.439,-3.532 0,-2.051 1.376,-3.532 3.439,-3.532 0.503,0 1.151,0.119 1.508,0.265 z"
               id="path4749"
               style="fill:#ffffff;fill-opacity:1" />
            <path
               inkscape:connector-curvature="0"
               d="m 198.47,115.72 c 0.622,-0.371 1.362,-0.636 2.223,-0.636 1.932,0 2.712,0.952 2.712,2.792 v 2.791 c 0,0.768 0.026,1.125 0.053,1.322 h -1.164 v -0.873 h -0.026 c -0.291,0.41 -0.953,1.032 -2.091,1.032 -1.455,0 -2.474,-0.635 -2.474,-2.104 0,-1.693 1.853,-2.223 3.136,-2.223 0.489,0 0.833,0 1.322,0.026 0,-1.164 -0.423,-1.76 -1.666,-1.76 -0.701,0 -1.456,0.266 -1.958,0.688 z m 3.691,3.055 c -0.264,0 -0.528,-0.025 -0.793,-0.025 -0.675,0 -2.342,0.105 -2.342,1.296 0,0.714 0.688,1.099 1.257,1.099 1.23,0 1.878,-0.768 1.878,-1.773 z"
               id="path4751"
               style="fill:#ffffff;fill-opacity:1" />
          </g>
        </g>
      </g>
    </g>
  </g>
</svg>
