<?xml version="1.0" encoding="UTF-8" standalone="no"?>
<!-- Generator: Adobe Illustrator 12.0.1, SVG Export Plug-In . SVG Version: 6.00 Build 51448)  -->
<svg
   xmlns:dc="http://purl.org/dc/elements/1.1/"
   xmlns:cc="http://creativecommons.org/ns#"
   xmlns:rdf="http://www.w3.org/1999/02/22-rdf-syntax-ns#"
   xmlns:svg="http://www.w3.org/2000/svg"
   xmlns="http://www.w3.org/2000/svg"
   xmlns:sodipodi="http://sodipodi.sourceforge.net/DTD/sodipodi-0.dtd"
   xmlns:inkscape="http://www.inkscape.org/namespaces/inkscape"
   version="1.0"
   id="Layer_1"
   width="311.46603"
   height="263.93124"
   viewBox="0 0 311.126 289.258"
   overflow="visible"
   enable-background="new 0 0 311.126 289.258"
   xml:space="preserve"
   sodipodi:version="0.32"
   inkscape:version="0.46"
   sodipodi:docname="systemslogo-3colour-blacktext.svg"
   inkscape:output_extension="org.inkscape.output.svg.inkscape"
   sodipodi:docbase="/home/baumanan/logos"
   inkscape:export-filename="/home/baumanan/systemslogo-2colour-whitetext.png"
   inkscape:export-xdpi="90"
   inkscape:export-ydpi="90"><metadata
   id="metadata30"><rdf:RDF><cc:Work
       rdf:about=""><dc:format>image/svg+xml</dc:format><dc:type
         rdf:resource="http://purl.org/dc/dcmitype/StillImage" /></cc:Work></rdf:RDF></metadata><defs
   id="defs28"><inkscape:perspective
     sodipodi:type="inkscape:persp3d"
     inkscape:vp_x="0 : 131.96562 : 1"
     inkscape:vp_y="0 : 1000 : 0"
     inkscape:vp_z="311.46603 : 131.96562 : 1"
     inkscape:persp3d-origin="155.73302 : 87.977081 : 1"
     id="perspective32" /></defs><sodipodi:namedview
   inkscape:window-height="731"
   inkscape:window-width="844"
   inkscape:pageshadow="2"
   inkscape:pageopacity="0"
   guidetolerance="10.0"
   gridtolerance="10.0"
   objecttolerance="10.0"
   borderopacity="1.0"
   bordercolor="#666666"
   pagecolor="#000000"
   id="base"
   inkscape:zoom="1.8072889"
   inkscape:cx="164.53257"
   inkscape:cy="124.58359"
   inkscape:window-x="1050"
   inkscape:window-y="177"
   inkscape:current-layer="Layer_1"
   showguides="false"
   inkscape:guide-bbox="true"
   showgrid="false"><sodipodi:guide
     orientation="vertical"
     position="-65.291167"
     id="guide5185" /><sodipodi:guide
     orientation="vertical"
     position="-11.619615"
     id="guide5187" /></sodipodi:namedview>
<polygon
   points="4.98,44.429 300.988,53.2 311.126,206.042 4.98,236.038 4.98,44.429 "
   id="polygon3"
   style="fill:#981b1e"
   transform="translate(0.3400176,-24.159617)" />








<polygon
   points="134.599,41.994 207.33,32.736 213.94,86.955 141.211,96.212 134.599,41.994 "
   id="polygon13"
   style="fill:#ffffff"
   transform="translate(0.3400176,-24.159617)" />
<polygon
   points="64.512,113.403 137.243,104.147 143.854,158.364 71.123,167.622 64.512,113.403 "
   id="polygon15"
   style="fill:#ffffff"
   transform="translate(0.3400176,-24.159617)" />
<polygon
   points="220.555,93.567 293.287,84.311 299.897,138.528 227.166,147.786 220.555,93.567 "
   id="polygon17"
   style="fill:#ffffff"
   transform="translate(0.3400176,-24.159617)" />
<polygon
   points="142.532,102.823 215.264,93.567 221.877,147.786 149.143,157.041 142.532,102.823 "
   id="polygon19"
   style="fill:#ffffff"
   transform="translate(0.3400176,-24.159617)" />
<polygon
   points="150.467,162.334 223.198,153.076 229.811,207.293 157.078,216.551 150.467,162.334 "
   id="polygon21"
   style="fill:#ffffff"
   transform="translate(0.3400176,-24.159617)" />
<line
   x1="191.80202"
   y1="160.6534"
   x2="177.25601"
   y2="46.92738"
   id="line23"
   style="fill:none;stroke:#f6f6f6;stroke-width:3.59999989999999981;stroke-linecap:round;stroke-linejoin:round;stroke-opacity:1" />
<line
   x1="257.92001"
   y1="93.210388"
   x2="111.13402"
   y2="111.72439"
   id="line25"
   style="fill:none;stroke:#f6f6f6;stroke-width:3.59999989999999981;stroke-linecap:round;stroke-linejoin:round;stroke-opacity:1" />
<text
   transform="scale(0.9242349,1.081976)"
   font-size="41.7599"
   id="text11"
   style="font-size:41.14536667000000136px;font-style:normal;font-variant:normal;font-weight:normal;font-stretch:normal;text-align:start;line-height:125%;writing-mode:lr-tb;text-anchor:start;fill:#000000;fill-opacity:1;font-family:ETH"
   sodipodi:linespacing="125%"
   x="3.8748367"
   y="230.16846"><tspan
     sodipodi:role="line"
     id="tspan5234"
     x="3.8748367"
     y="230.16846"><tspan
       style="font-style:italic;font-weight:bold;fill:#000000"
       id="tspan5167">Systems</tspan></tspan></text>

<g
   id="content"
   transform="matrix(1.7768556,0,0,-1.7768556,-114.68925,-107.82789)"
   xml:space="preserve"
   stroke-miterlimit="10.433"
   fill-rule="even-odd"
   font-style="normal"
   font-variant="normal"
   font-weight="normal"
   font-stretch="normal"
   font-size-adjust="none"
   letter-spacing="normal"
   word-spacing="normal"
   style="font-style:normal;font-variant:normal;font-weight:normal;font-stretch:normal;letter-spacing:normal;word-spacing:normal;text-anchor:start;fill:#000000;fill-opacity:1;stroke:none;stroke-linecap:butt;stroke-linejoin:miter;stroke-miterlimit:10.43299960999999954;stroke-dasharray:none;stroke-dashoffset:0;stroke-opacity:1">
<polygon
   points="198.5,-184.01 197.16,-190.13 201.12,-190.13 202.6,-184.01 208.45,-184.01 204.66,-200.97 198.77,-200.97 200.14,-194.45 196.28,-194.45 194.71,-200.97 188.64,-200.96 191.44,-188.41 186.19,-188.41 183.39,-200.97 177.15,-200.97 179.95,-188.41 166.26,-188.41 165.8,-190.43 174.24,-190.43 173.35,-194.43 164.85,-194.43 164.36,-196.56 173.18,-196.56 172.2,-200.97 157.12,-200.97 160.9,-184.01 198.5,-184.01 "
   id="polygon9"
   style="fill:#000000;fill-opacity:1;fill-rule:nonzero;stroke:none;stroke-width:0" />
<path
   d="M 215.41,-194.04 L 211.6,-198.91 C 211.45,-199.1 211.31,-199.28 211.13,-199.47 C 211.32,-199.45 211.87,-199.45 212.83,-199.45 L 214.43,-199.45 L 214.15,-200.89 L 208.96,-200.89 L 209.18,-199.69 L 212.82,-194.94 C 213.03,-194.66 213.24,-194.42 213.48,-194.17 C 213.2,-194.18 212.85,-194.2 212.07,-194.2 L 210.34,-194.2 L 210.59,-192.79 L 215.64,-192.79 L 215.41,-194.04 z "
   id="path11"
   style="fill:#000000;fill-opacity:1;fill-rule:nonzero;stroke:none;stroke-width:0" />
<path
   d="M 220.97,-198.05 L 220.95,-198.12 L 220.94,-198.21 L 220.92,-198.29 L 220.91,-198.37 L 220.87,-198.55 L 220.84,-198.73 L 220.8,-198.92 L 220.77,-199.11 L 220.7,-199.5 L 220.66,-199.7 L 220.63,-199.89 L 220.59,-200.08 L 220.56,-200.26 L 220.55,-200.34 L 220.53,-200.43 L 220.52,-200.51 L 220.5,-200.59 L 220.49,-200.67 L 220.48,-200.75 L 220.46,-200.82 L 220.45,-200.89 L 218.99,-200.89 C 219.05,-200.53 219.2,-199.98 219.52,-199.04 L 219.49,-199.03 C 218.95,-200.1 218.12,-201.02 216.98,-201.02 C 215.83,-201.02 215.48,-200.21 215.7,-199.04 L 216.49,-194.93 L 217.99,-194.93 L 217.27,-198.67 C 217.14,-199.4 217.25,-199.7 217.63,-199.7 C 218.44,-199.7 219.52,-197.83 219.78,-196.44 L 220.07,-194.93 L 221.57,-194.93 L 220.97,-198.05 z "
   id="path13"
   style="fill:#000000;fill-opacity:1;fill-rule:nonzero;stroke:none;stroke-width:0" />
<path
   d="M 218.05,-193.94 L 218.01,-193.94 L 217.97,-193.94 L 217.92,-193.93 L 217.88,-193.92 L 217.84,-193.92 L 217.8,-193.9 L 217.77,-193.89 L 217.73,-193.88 L 217.69,-193.86 L 217.66,-193.84 L 217.63,-193.82 L 217.59,-193.8 L 217.56,-193.78 L 217.53,-193.75 L 217.5,-193.73 L 217.48,-193.7 L 217.45,-193.67 L 217.43,-193.64 L 217.4,-193.61 L 217.38,-193.58 L 217.36,-193.55 L 217.34,-193.52 L 217.33,-193.48 L 217.31,-193.45 L 217.3,-193.41 L 217.28,-193.37 L 217.27,-193.34 L 217.27,-193.3 L 217.26,-193.26 L 217.25,-193.22 L 217.25,-193.18 L 217.25,-193.14 C 217.25,-192.65 217.65,-192.29 218.1,-192.29 C 218.57,-192.29 218.91,-192.65 218.91,-193.08 C 218.91,-193.57 218.51,-193.94 218.05,-193.94 z "
   id="path15"
   style="fill:#000000;fill-opacity:1;fill-rule:nonzero;stroke:none;stroke-width:0" />
<path
   d="M 220.48,-193.94 L 220.43,-193.94 L 220.39,-193.94 L 220.35,-193.93 L 220.31,-193.92 L 220.27,-193.91 L 220.23,-193.9 L 220.2,-193.89 L 220.16,-193.88 L 220.12,-193.86 L 220.09,-193.84 L 220.06,-193.82 L 220.02,-193.8 L 219.99,-193.78 L 219.96,-193.75 L 219.93,-193.73 L 219.9,-193.7 L 219.88,-193.67 L 219.85,-193.64 L 219.83,-193.61 L 219.81,-193.58 L 219.79,-193.55 L 219.77,-193.51 L 219.75,-193.48 L 219.73,-193.44 L 219.72,-193.4 L 219.71,-193.37 L 219.7,-193.33 L 219.69,-193.29 L 219.68,-193.25 L 219.68,-193.21 L 219.67,-193.17 L 219.67,-193.12 C 219.67,-192.65 220.08,-192.29 220.54,-192.29 C 220.99,-192.29 221.33,-192.65 221.33,-193.08 C 221.33,-193.57 220.93,-193.94 220.48,-193.94 z "
   id="path17"
   style="fill:#000000;fill-opacity:1;fill-rule:nonzero;stroke:none;stroke-width:0" />
<path
   d="M 226.12,-196.28 L 226.03,-196.26 L 225.95,-196.25 L 225.87,-196.25 L 225.78,-196.26 L 225.7,-196.28 L 225.61,-196.31 L 225.53,-196.35 L 225.44,-196.4 L 225.36,-196.46 L 225.27,-196.52 L 225.19,-196.6 L 225.1,-196.68 L 225.02,-196.77 L 224.94,-196.86 L 224.86,-196.97 L 224.78,-197.08 L 224.7,-197.2 L 224.62,-197.32 L 224.55,-197.45 L 224.48,-197.59 L 224.41,-197.73 L 224.34,-197.88 L 224.27,-198.03 L 224.21,-198.19 L 224.15,-198.35 L 224.09,-198.52 L 224.03,-198.69 L 223.98,-198.86 L 223.93,-199.04 L 223.88,-199.22 L 223.84,-199.41 L 223.8,-199.59 L 223.55,-200.89 L 222.05,-200.89 L 222.65,-197.77 C 222.82,-196.93 223.04,-195.7 223.16,-194.93 L 224.62,-194.93 C 224.54,-195.38 224.39,-195.91 224.1,-196.73 L 224.12,-196.73 C 224.76,-195.47 225.41,-194.64 226.44,-194.8 L 226.12,-196.28 z "
   id="path19"
   style="fill:#000000;fill-opacity:1;fill-rule:nonzero;stroke:none;stroke-width:0" />
<polygon
   points="227.76,-200.89 226.26,-200.89 227.4,-194.93 228.9,-194.93 227.76,-200.89 "
   id="polygon3174"
   style="fill:#000000;fill-opacity:1;fill-rule:nonzero;stroke:none;stroke-width:0" />
<path
   d="M 228.41,-194.16 L 228.36,-194.16 L 228.31,-194.16 L 228.27,-194.15 L 228.22,-194.14 L 228.18,-194.13 L 228.13,-194.12 L 228.09,-194.1 L 228.05,-194.09 L 228.01,-194.07 L 227.97,-194.05 L 227.93,-194.03 L 227.89,-194 L 227.86,-193.98 L 227.83,-193.95 L 227.79,-193.92 L 227.76,-193.89 L 227.73,-193.86 L 227.71,-193.83 L 227.68,-193.79 L 227.66,-193.76 L 227.64,-193.72 L 227.62,-193.68 L 227.6,-193.65 L 227.58,-193.61 L 227.57,-193.57 L 227.55,-193.53 L 227.54,-193.48 L 227.54,-193.44 L 227.53,-193.4 L 227.52,-193.36 L 227.52,-193.31 L 227.52,-193.27 C 227.54,-192.72 228.01,-192.3 228.54,-192.3 C 229.05,-192.3 229.44,-192.71 229.43,-193.16 C 229.42,-193.74 228.94,-194.16 228.41,-194.16 z "
   id="path23"
   style="fill:#000000;fill-opacity:1;fill-rule:nonzero;stroke:none;stroke-width:0" />
<path
   d="M 233.82,-196.28 L 233.77,-196.26 L 233.72,-196.24 L 233.67,-196.22 L 233.61,-196.2 L 233.56,-196.19 L 233.51,-196.17 L 233.45,-196.16 L 233.39,-196.15 L 233.34,-196.14 L 233.28,-196.13 L 233.22,-196.12 L 233.16,-196.11 L 233.09,-196.11 L 233.03,-196.1 L 232.96,-196.1 L 232.9,-196.1 C 231.65,-196.1 231.07,-197.49 231.07,-198.61 C 231.07,-199.18 231.31,-199.66 232.13,-199.66 C 232.51,-199.66 232.92,-199.58 233.24,-199.44 L 233.11,-200.77 C 232.71,-200.91 232.2,-201.01 231.68,-201.01 C 230.09,-201.01 229.48,-200.2 229.48,-198.95 C 229.48,-196.66 230.82,-194.8 232.99,-194.8 C 233.43,-194.8 233.81,-194.87 234.18,-194.96 L 233.82,-196.28 z "
   id="path25"
   style="fill:#000000;fill-opacity:1;fill-rule:nonzero;stroke:none;stroke-width:0" />
<path
   d="M 239.34,-200.89 L 237.83,-200.89 L 238.55,-197.15 C 238.7,-196.41 238.57,-196.11 238.19,-196.11 C 237.39,-196.11 236.3,-197.98 236.04,-199.38 L 235.75,-200.89 L 234.25,-200.89 L 235.92,-192.13 L 237.42,-192.13 L 236.95,-194.65 C 236.84,-195.18 236.66,-195.78 236.3,-196.77 L 236.33,-196.79 C 236.87,-195.72 237.7,-194.79 238.84,-194.79 C 239.99,-194.79 240.34,-195.61 240.12,-196.77 L 239.34,-200.89 z "
   id="path27"
   style="fill:#000000;fill-opacity:1;fill-rule:nonzero;stroke:none;stroke-width:0" />
</g><text
   xml:space="preserve"
   style="font-size:33.02168274000000281px;font-style:normal;font-weight:normal;fill:#000000;fill-opacity:1;stroke:none;stroke-width:1px;stroke-linecap:butt;stroke-linejoin:miter;stroke-opacity:1;font-family:ETH"
   x="135.63147"
   y="248.92387"
   id="text5181"><tspan
     sodipodi:role="line"
     id="tspan5183"
     x="135.63147"
     y="248.92387"
     style="fill:#000000;fill-opacity:1;font-weight:bold">@</tspan></text>

</svg>